<?xml version="1.0" encoding="UTF-8"?><svg id="Layer_2" xmlns="http://www.w3.org/2000/svg" xmlns:xlink="http://www.w3.org/1999/xlink" viewBox="0 0 608 808"><defs><style>.cls-1{fill:#f93029;}.cls-2{fill:#d4cbbd;}.cls-3{filter:url(#outer-glow-10);}.cls-3,.cls-4,.cls-5,.cls-6,.cls-7,.cls-8,.cls-9,.cls-10,.cls-11{fill:#919691;}.cls-12,.cls-13{fill:none;}.cls-12,.cls-13,.cls-14{stroke:#000;stroke-miterlimit:10;}.cls-15{fill:#a5aba2;filter:url(#outer-glow-1);}.cls-13{stroke-width:5px;}.cls-16{fill:#ede6d8;}.cls-4{filter:url(#outer-glow-9);}.cls-5{filter:url(#outer-glow-6);}.cls-6{filter:url(#outer-glow-8);}.cls-7{filter:url(#outer-glow-7);}.cls-8{filter:url(#outer-glow-4);}.cls-9{filter:url(#outer-glow-5);}.cls-10{filter:url(#outer-glow-2);}.cls-11{filter:url(#outer-glow-3);}</style><filter id="outer-glow-1" filterUnits="userSpaceOnUse"><feOffset dx="0" dy="0"/><feGaussianBlur result="blur" stdDeviation="2"/><feFlood flood-color="#000" flood-opacity=".96"/><feComposite in2="blur" operator="in"/><feComposite in="SourceGraphic"/></filter><filter id="outer-glow-2" filterUnits="userSpaceOnUse"><feOffset dx="0" dy="0"/><feGaussianBlur result="blur-2" stdDeviation="1"/><feFlood flood-color="#000" flood-opacity=".96"/><feComposite in2="blur-2" operator="in"/><feComposite in="SourceGraphic"/></filter><filter id="outer-glow-3" filterUnits="userSpaceOnUse"><feOffset dx="0" dy="0"/><feGaussianBlur result="blur-3" stdDeviation="1"/><feFlood flood-color="#000" flood-opacity=".96"/><feComposite in2="blur-3" operator="in"/><feComposite in="SourceGraphic"/></filter><filter id="outer-glow-4" filterUnits="userSpaceOnUse"><feOffset dx="0" dy="0"/><feGaussianBlur result="blur-4" stdDeviation="1"/><feFlood flood-color="#000" flood-opacity=".96"/><feComposite in2="blur-4" operator="in"/><feComposite in="SourceGraphic"/></filter><filter id="outer-glow-5" filterUnits="userSpaceOnUse"><feOffset dx="0" dy="0"/><feGaussianBlur result="blur-5" stdDeviation="1"/><feFlood flood-color="#000" flood-opacity=".96"/><feComposite in2="blur-5" operator="in"/><feComposite in="SourceGraphic"/></filter><filter id="outer-glow-6" filterUnits="userSpaceOnUse"><feOffset dx="0" dy="0"/><feGaussianBlur result="blur-6" stdDeviation="1"/><feFlood flood-color="#000" flood-opacity=".96"/><feComposite in2="blur-6" operator="in"/><feComposite in="SourceGraphic"/></filter><filter id="outer-glow-7" filterUnits="userSpaceOnUse"><feOffset dx="0" dy="0"/><feGaussianBlur result="blur-7" stdDeviation="1"/><feFlood flood-color="#000" flood-opacity=".96"/><feComposite in2="blur-7" operator="in"/><feComposite in="SourceGraphic"/></filter><filter id="outer-glow-8" filterUnits="userSpaceOnUse"><feOffset dx="0" dy="0"/><feGaussianBlur result="blur-8" stdDeviation="1"/><feFlood flood-color="#000" flood-opacity=".96"/><feComposite in2="blur-8" operator="in"/><feComposite in="SourceGraphic"/></filter><filter id="outer-glow-9" filterUnits="userSpaceOnUse"><feOffset dx="0" dy="0"/><feGaussianBlur result="blur-9" stdDeviation="1"/><feFlood flood-color="#000" flood-opacity=".96"/><feComposite in2="blur-9" operator="in"/><feComposite in="SourceGraphic"/></filter><filter id="outer-glow-10" filterUnits="userSpaceOnUse"><feOffset dx="0" dy="0"/><feGaussianBlur result="blur-10" stdDeviation="1"/><feFlood flood-color="#000" flood-opacity=".96"/><feComposite in2="blur-10" operator="in"/><feComposite in="SourceGraphic"/></filter></defs><g id="Layer_1-2"><rect id="MPC_BG" class="cls-16" width="608" height="808"/><rect id="Button_BG" class="cls-15" x="72" y="351" width="464" height="408"/><polyline class="cls-12" points="154.146 76.5 154.146 45.976 160.689 45.976 173.146 71.5 185.716 45.976 191.685 45.976 191.685 76.5"/><polyline class="cls-12" points="157.979 76.5 158.146 50.5 158.88 50.5 170.878 76.5 173.146 76.5 175.145 76.5 187.154 50.5 188.146 50.5 188.146 76.5"/><polyline class="cls-12" points="199.56 76.5 199.56 45.976 230.694 45.976 234.146 48.5 234.146 60.646 231.146 62.5 204.146 62.5 203.32 63.5 203.17 76.5"/><polygon class="cls-12" points="204.146 58.5 203.146 57.5 203.146 50.5 204.146 49.516 228.213 49.516 230.146 51.5 230.146 56.66 228.288 58.5 204.146 58.5"/><polyline class="cls-12" points="275.146 51.5 275.146 47.453 272.146 45.5 244.223 45.5 241.146 48.5 241.146 73.097 244.146 75.5 270.914 75.5 275.146 71.603 275.146 68.371"/><polyline class="cls-12" points="271.146 51.5 269.209 49.516 246.768 49.516 245.146 50.5 245.146 70.705 246.146 71.5 269.029 71.5 271.146 69.628 271.146 68.371"/><polyline class="cls-13" points="284.646 47 313.544 47 316.125 49.516 316.125 56.599 313.544 60.5 316.125 63.99 316.125 70.207 312.646 73 284.646 73"/><line class="cls-13" x1="290.434" y1="60.5" x2="313.544" y2="60.5"/><polygon class="cls-13" points="332.784 47 329.146 49.5 329.146 70.5 331.146 73.5 359.146 73.5 362.146 69.5 362.146 50.147 359.531 47 332.784 47"/><polygon class="cls-13" points="378.492 47.322 374.854 49.822 374.854 70.822 376.854 73.822 404.854 73.822 407.854 69.822 407.854 50.468 405.239 47.322 378.492 47.322"/><polygon class="cls-13" points="424.492 47.322 420.854 49.822 420.854 70.822 422.854 73.822 450.854 73.822 453.854 69.822 453.854 50.468 451.239 47.322 424.492 47.322"/><path class="cls-1" d="M507.372,72.632c-.067.134-.167.234-.3.3-.135.067-.268.167-.4.3-.134-.066-.234-.133-.3-.2.065.134.05.2-.05.2-.101,0-.085.1.05.3-.268-.133-.385-.116-.35.05.032.167.016.317-.051.45l-.199-.2-.5.2-.101-.2c-.134.067-.234.15-.3.25-.067.1-.135.184-.2.25l.4.2c-.067-.065-.101-.065-.101,0-.534-.133-.934-.2-1.199-.2-.268,0-.45.05-.551.15-.1.1-.184.217-.25.35v-.1c-.399.334-.8.5-1.199.5s-.867.134-1.4.4l.5.3c-.067.067-.268.167-.6.3-.335.134-.7.284-1.101.45-.399.167-.8.3-1.2.4-.399.1-.634.117-.699.05-.268,0-.5.034-.7.1l-.2.2c-.135,0-.268.067-.4.2-.267.267-.667.5-1.199.7-.067.067-.117.1-.15.1-.034,0-.084.035-.15.1,0-.065-.017-.083-.05-.05-.034.034-.05.017-.05-.05l-.1.1h-.101c-.267.134-.435.2-.5.2.2,0,.333-.033.4-.1.133,0,.282-.016.45-.05.165-.033.315-.05.449-.05h1c.066,0,.101-.016.101-.05,0-.033.065-.016.2.05.065,0,.05.017-.051.05-.1.034-.117.084-.05.15-.067,0-.234.067-.5.2-.067.067-.234.167-.5.3-.2,0-.35.034-.45.1-.1.067-.217.134-.35.2l-.9.3c-.267.067-.6.167-1,.3-.066.067-.134.1-.199.1-.067,0-.168.034-.301.1h-.1l-.3.1h-.101c-.134,0-.267.035-.399.1-.135.067-.268.1-.4.1h.101c-.135.134-.2.134-.2,0,0,.067-.067.1-.2.1l-.2.2h-.2c.2,0,.301.035.301.1-.2.067-.435.167-.7.3h.2-.101c0,.734.083,1.467.25,2.2.166.734.25,1.467.25,2.2h-.2c-.066.2-.117.4-.149.6-.034.2.016.367.149.5h-.1l.1.3h-.1c0,.267.016.55.05.85.033.3.216.584.55.85-.134.067-.184.184-.149.35.032.167-.018.317-.15.45-.2.8-.2,1.685,0,2.65.2.967.366,1.917.5,2.85-.067.067-.134.1-.2.1s-.1.067-.1.2l.4-.1c-.268.4-.285.784-.051,1.15.233.367.184.717-.149,1.05l.399.2.301,2.6.199.8v.1c-.066,0-.084.017-.05.05.033.035.016.05-.05.05h.1c0,.067-.017.1-.05.1-.034,0-.05.035-.05.1v.1l-.1.1c0,.134-.018.267-.051.4-.034.134-.05.267-.05.4.065,0,.083-.016.05-.05-.034-.033-.017-.05.051-.05,0,.135.016.3.05.5.032.2.016.4-.05.6l.3.8-.3.1v.2h-.101c.065.067.101.134.101.2,0,.134.032.234.1.3v.2c.065-.133.1-.166.1-.1,0,.067-.034.167-.1.3v.2c.065,0,.1.017.1.05,0,.035.033.05.101.05v.8c-.067.065-.101.166-.101.3.066,0,.101.033.101.1v.2h.6c-.067,0-.1.033-.1.1v-.1.2h-.101.101c0,.066-.018.1-.05.1-.035,0-.051.033-.051.1.066,0,.101-.034.101-.1h.1-.1v.1h.1-.1l.2.1h.1v.1h-.1.1v.1l-.1.1-.101.1v.4l.101-.1c0,.133.016.266.05.4.032.133.016.266-.05.4,0,.065-.018.1-.051.1-.034,0-.05.033-.05.1l.101.1v.2c-.067,0-.101.033-.101.1l.101.1v.2c.065-.067.115-.084.149-.05.033.033-.017.083-.149.15.065.065.133.1.199.1,0,.133-.017.215-.05.25-.034.033-.05.115-.05.25v.4c.2.2.232.3.1.3h.101c0,.066-.018.116-.05.15-.035.033-.051.083-.051.15.066.2.101.4.101.6v.3c.065,0,.1.033.1.1v.5c.065,0,.101.033.101.1h-.101c0,.066.016.116.05.15.033.033.051.083.051.15v.1l.199.1c-.066,0-.084.016-.05.05.033.033.016.05-.05.05h.1c0,.066-.034.1-.1.1v.2c0,.065-.018.115-.05.15-.034.033-.05.116-.05.25.065,0,.082-.017.05-.05-.034-.034-.018-.05.05-.05v.7c0,.133-.018.215-.05.25-.034.033-.05.083-.05.15l.1.2v.1c-.067,0-.1.033-.1.1h.1v.3c.065-.067.1-.084.1-.05,0,.033-.034.083-.1.15v.1l.1.1c0,.065-.017.133-.05.2-.034.066-.05.166-.05.3,0,.065.016.116.05.15.033.033.05.116.05.25v.1c.133.133.133.2,0,.2h.101v.1c0,.066.032.1.1.1h-.1c.065.065.065.1,0,.1v.3l.1.1h-.1.1c0,.065-.034.1-.1.1v.2l-.101.1c.133.266.2.466.2.6v1.3h-.3v.2c0,.065.016.133.05.2.033.065.05.133.05.2v.3c0,.2-.066.433-.199.7-.067.066-.101.066-.101,0v.7l-.3.6-.1.1c-.067,0-.101-.034-.101-.1-.067-.067-.1-.135-.1-.2l-.4-.2c.133-.067.166-.117.101-.15-.067-.034-.101-.084-.101-.15h-.1v-.5c-.067,0-.135.033-.2.1h-.2v-.1h.101-.101c.065,0,.101-.034.101-.1l-.101.1v-.1.1-.1h-.3.1c-.066,0-.066-.034,0-.1l.101-.1v-.2c-.067-.067-.101-.167-.101-.3l.101-.1c0-.067-.034-.1-.101-.1v-.1c0-.067-.034-.1-.1-.1l.1-.1h-.199c0-.067.016-.117.05-.15.032-.034.05-.084.05-.15,0-.067-.05-.117-.15-.15-.1-.034-.117-.05-.05-.05h-.1c0-.067.016-.1.05-.1.033,0,.05-.035.05-.1h-.2.101l-.101.1h-.199l.1-.1h-.1v-.1l.1.1v-.1h-.1v-.2c-.067.065-.101.133-.101.2v-.1h-.2l-.199-.1v.1l-.101.1h-.1c0-.067-.018-.1-.05-.1-.035,0-.051-.034-.051-.1-.066,0-.167-.067-.3-.2l-.2-.2c-.134-.267-.199-.467-.199-.6-.067-.067-.101-.135-.101-.2l.101-.1h-.101v-.5l-.1-.1v-.1c0,.065-.067.1-.2.1,0-.067-.067-.167-.2-.3v.1-.1c.065-.067.101-.167.101-.3v-.3l-1,.2-1-1.8c-.135,0-.2-.034-.2-.1h.2l-.2-.3v-.2l-.101-.2v.5c0,.065-.034.065-.1,0-.067-.067-.117-.134-.15-.2-.034-.067-.084-.134-.149-.2-.067,0-.234-.1-.5-.3l-.2-.4h-.1l-.301-.6c0-.134-.066-.334-.199-.6-.067-.067-.101-.135-.101-.2,0-.067-.034-.134-.1-.2,0,.066.032.066.1,0v-.1l-.1-.1c.065,0,.1-.035.1-.1-.067-.134-.1-.25-.1-.35s-.034-.217-.101-.35l.101-.1c-.067,0-.101-.035-.101-.1,0-.067-.034-.1-.1-.1v-.1l-.1.1c-.067-.134-.101-.217-.101-.25,0-.034-.034-.117-.1-.25v.2-1.5c.133-.6.065-1.1-.2-1.5,0-.135-.034-.2-.1-.2,0-.267.133-.4.399-.4-.467-.2-.5-.435-.1-.7-.135-.2-.268-.284-.4-.25-.134.033-.267.016-.399-.05v.3c0,.133.065.466.199,1,0,.466.033.8.101,1v1.3c-.067.065-.085.1-.05.1.032,0,.016.033-.051.1,0,.066-.034.066-.1,0v-.1c-.135-.134-.2-.267-.2-.4l-.1-.1v.3c-.067.065-.101.05-.101-.05s-.034-.117-.1-.05l-.2-.4-.399-.2c.133-.067.165-.117.1-.15-.067-.034-.135-.05-.2-.05-.134-.268-.2-.435-.2-.5,0-.067-.017-.135-.05-.2-.034-.067-.05-.134-.05-.2v.1c-.135-.4-.234-.667-.3-.8v-.1c-.135-.4-.2-.7-.2-.9-.135-.133-.185-.233-.15-.3.033-.065.016-.133-.05-.2v-.4c-.067-.133-.1-.3-.1-.5s-.034-.366-.101-.5l.101-.1c-.067-.066-.101-.133-.101-.2,0-.065-.034-.133-.1-.2v-.1l-.1.1c-.067-.066-.2-.266-.4-.6v.2-3.05c0-.3-.067-.616-.2-.95-.067-.065-.1-.115-.1-.15,0-.033-.034-.083-.101-.15,0-.065.033-.133.101-.2,0-.2.065-.3.2-.3-.2-.2-.301-.533-.301-1,0-.133-.066-.4-.199-.8-.067-.266-.117-.55-.15-.85-.034-.3-.084-.616-.15-.95-.134-.733-.217-1.383-.25-1.95-.034-.566.016-.916.15-1.05,0-.2.016-.383.05-.55.033-.166.05-.383.05-.65-.066-.133-.1-.233-.1-.3,0-.065-.034-.166-.1-.3v.2-.2c.065-.133.1-.433.1-.9-.067-.733-.135-1.45-.2-2.15-.067-.7,0-1.35.2-1.95v-.2c0-.2.033-.366.1-.5-.199,0-.367.035-.5.1-.267.134-.434.2-.5.2-.134.134-.234.2-.3.2-.067,0-.167.067-.3.2l-.1-.1c-.135.134-.268.217-.4.25-.135.034-.268.117-.4.25l-.3.3c-.067.067-.167.1-.3.1-.268,0-.4-.033-.4-.1-.334.535-.967.867-1.899,1,.133-.065.232-.1.3-.1.065,0,.166-.033.3-.1-.334.067-.649.15-.95.25-.3.1-.55.184-.75.25-.134.134-.199.167-.199.1h-.101c0,.067-.034.1-.1.1v-.1c0,.067-.101.1-.3.1h-.2l-.2.2c0,.134-.034.2-.1.2-.067,0-.135.034-.2.1,0,.067-.034.1-.101.1l.101-.1-.2.2h-.1v.1-.1c-.067,0-.117.017-.15.05-.034.035-.084.05-.15.05h.101c-.067.067-.135.1-.2.1h-.1l.199-.1c-.066,0-.134.034-.199.1h-.2l-.2.2-.1.1h.1c-.067.067-.117.134-.15.2-.034.067-.117.134-.25.2h.2-.1c-.135.067-.367.15-.7.25-.334.1-.567.185-.7.25-.134,0-.267.035-.399.1-.135.267-.4.484-.801.65-.399.167-.767.317-1.1.45l.6-.3h-.1c-.135.067-.2.084-.2.05,0-.033-.034-.016-.1.05-.135.134-.268.2-.4.2,0,.067-.034.1-.1.1v-.1h-.101c-.134.067-.199.067-.199,0h-.101v.1c-.134.134-.267.2-.399.2l-.101.2c-.067.067-.134.15-.2.25s-.134.117-.199.05h-.101c0,.134-.067.2-.2.2l.101-.1c0-.133.032-.2.1-.2-.067.067-.234.167-.5.3h-.1v.1c-.067,0-.085-.016-.05-.05.032-.033.016-.05-.051-.05v.1c-.066,0-.117.034-.149.1-.034.067-.117.135-.25.2l-.3.3c-.067.067-.051.035.05-.1.1-.133.216-.233.35-.3-.067,0-.1.035-.1.1,0-.065-.05-.033-.15.1-.1.134-.185.2-.25.2v.1h-.1v.1h-.101v.3h.101c-.4.467-.65.785-.75.95-.101.167-.25.55-.45,1.15l.1.2c-.066-.133-.149-.166-.25-.1-.1.067-.184.1-.25.1-.066.134-.1.284-.1.45,0,.167-.067.317-.2.45h-.1c.133-.333.25-.65.35-.95.101-.3.183-.583.25-.85l-.2-.1-.1.1v.1c0,.135-.018.2-.05.2-.034,0-.05.034-.05.1l.1.1c-.334.2-.518.4-.55.6-.034.2-.117.367-.25.5-.067.268-.034.467.1.6-.2.2-.367.334-.5.4-.067.135-.134.285-.2.45-.066.167-.134.317-.199.45-.067.134-.135.25-.2.35-.067.1-.135.217-.2.35v-.1.3h.1-.1l-.2.2v.1c-.067.134-.117.185-.149.15-.035-.033-.051.018-.051.15-.066,0-.1.034-.1.1,0,.067-.018.117-.05.15-.034.034-.05.084-.05.15-.135.267-.2.467-.2.6.065-.066.1-.066.1,0,0,.067-.067.134-.2.2.066.067.116.1.15.1.033,0,.083.034.15.1l-.101-.1c.133.134-.067.467-.6,1-.067.134-.117.217-.15.25-.034.034-.084.117-.149.25.065,0,0,.034-.2.1.133,0,.216-.016.25-.05.032-.033.083-.05.149-.05-.066.134-.134.185-.199.15-.067-.033-.168.017-.301.15-.066.067-.1.117-.1.15,0,.034-.034.084-.1.15.065.134.032.267-.101.4-.134.267-.234.55-.3.85-.067.3-.135.45-.2.45v.1c-.067.134-.134.267-.2.4-.066.135-.134.268-.199.4v-.1c-.135.267-.268.534-.4.8-.135.266-.268.5-.4.7l-.199.2c-.135.4-.234.666-.301.8-.133.133-.215.3-.25.5-.032.2-.082.366-.149.5-.4.533-.7,1.033-.9,1.5-.2.333-.433.683-.7,1.05-.266.366-.532.716-.8,1.05h.101c-.133.065-.184.1-.15.1.034,0-.016.066-.15.2-.065.065-.082.033-.05-.1.034-.134.018-.167-.05-.1.135-.267.2-.434.2-.5l-.3.3-.101.1c0,.266-.032.4-.1.4,0,.065-.016.1-.05.1-.033,0-.051.033-.051.1l-.199.4c0,.065-.016.1-.051.1-.032,0-.05.033-.05.1v.1c-.133.065-.2.166-.2.3-.133.133-.232.266-.3.4-.065.133-.133.215-.2.25-.065.033-.165.115-.3.25h-.1l-.101-.1v-.2c-.065-.067-.1-.167-.1-.3l-.3.6.1-2.6c.067-.267.135-.535.2-.8.067-.267.167-.5.3-.7h-.2l-.1-.1.1-.1v.1c.067,0,.067-.034,0-.1h.101l.1-.1h-.1l-.101.1v-.1.1-.1l-.199-.2h.1v-.1h.1c-.065,0-.1-.034-.1-.1h-.1l-.2.4c-.133.066-.233.133-.3.2-.066.065-.083.05-.051-.05.035-.1.018-.15-.05-.15.067-.134.101-.234.101-.3,0-.067.034-.167.1-.3h-.1v.3c-.066.065-.116.133-.15.2-.033.065-.083.133-.15.2l-.1.1-.1-.1c0-.067-.016-.1-.051-.1-.032,0-.05-.034-.05-.1l-.2-.2c0-.067-.016-.1-.05-.1-.032,0-.05-.034-.05-.1-.133-.2-.133-.367,0-.5-.065-.067-.1-.134-.1-.2h.1v-.3h.1-.1c-.266.266-.5.466-.7.6l-.2-.2c0-.067.018-.117.051-.15.034-.034.05-.084.05-.15,0-.067.05-.167.149-.3.101-.134.185-.267.25-.4.067-.067.101-.167.101-.3v-.3c-.065-.067-.101-.234-.101-.5v-.5c.067-.2.117-.417.15-.65.034-.233.084-.45.15-.65v-.4c0,.067.017.067.05,0,.034-.065.05-.065.05,0v-.2c.067,0,.1-.066.1-.2,0-.2.067-.366.2-.5h-.1c0-.065.034-.1.1-.1v-.4l-.1.1v-.6c0,.067-.033.134-.101.2,0-.066.018-.1.051-.1.034,0,.05-.033.05-.1.067-.133.149-.315.25-.55.1-.233.217-.416.35-.55,0-.133.067-.333.2-.6,0,.067-.016.117-.05.15-.033.034-.05.084-.05.15-.066,0-.133.034-.2.1-.133.4-.266.7-.4.9-.065.2-.232.5-.5.9-.2.334-.532.667-1,1h.101c-.133.134-.184.2-.15.2.034,0,.018.034-.05.1-.065,0-.083-.05-.05-.15.034-.1.017-.15-.051-.15.067-.065.085-.116.051-.15-.033-.033-.016-.116.05-.25v-.7c.067-.133.1-.3.1-.5,0-.465.101-.9.3-1.3,0-.133.018-.216.051-.25.034-.033.05-.116.05-.25l.1-.1v-.1l.101-.1h.1c.067-.065.1-.15.1-.25s.035-.215.101-.35v.1c0-.133.034-.166.1-.1v-.4h-.1c0-.2.034-.365.1-.5l-.1.1v-.1c.267-.266.467-.565.6-.9v-.2c-.065.067-.1.067-.1,0v-.1h.1v-.4l.101-.1v.1-.1c.066,0,.066-.033,0-.1,0-.2.066-.3.199-.3v-.2c-.133.134-.199.267-.199.4v-.2l.1-.1-.1-.1h.1c0-.065-.016-.116-.05-.15-.033-.033-.05-.083-.05-.15v-.4h.1v-.1l.1-.1c0-.066.018-.116.051-.15.034-.033.05-.083.05-.15h.1v-.1c0-.066.018-.1.05-.1.035,0,.051-.033.051-.1.199-.2.434-.5.699-.9-.065,0-.1.034-.1.1.135-.333.268-.633.4-.9.134-.266.267-.565.399-.9.067-.133.135-.215.2-.25.067-.033.167-.116.3-.25v.1c0-.065.018-.183.05-.35.035-.166.085-.25.15-.25.067-.133.1-.183.1-.15,0,.034.035-.016.101-.15l.1-.1c0-.133.034-.2.101-.2,0-.2.066-.433.199-.7-.065.067-.082.067-.05,0,.034-.066.117-.133.25-.2v-.6c.135-.2.3-.4.5-.6.2-.2.367-.433.5-.7v-.1c.067-.065.167-.35.3-.85.135-.5.234-.75.301-.75v-.1c.066-.133.134-.233.199-.3.067-.065.135-.166.2-.3.135-.266.268-.516.4-.75.134-.233.234-.45.3-.65.133-.133.2-.233.2-.3.133-.266.25-.533.35-.8.101-.266.216-.533.351-.8.133-.266.282-.516.449-.75.166-.232.316-.45.45-.65.2-.465.466-.9.8-1.3l.101-.1c0-.133.032-.216.1-.25.065-.033.133-.116.2-.25.2-.2.3-.266.3-.2l.101-.1v-.2c.065-.065.1-.083.1-.05,0,.034.033.017.1-.05,0-.065.016-.1.051-.1.032,0,.05-.033.05-.1l.2-.4c-.067.067-.101.084-.101.05,0-.033.065-.083.2-.15v-.3c.2-.2.4-.333.6-.4.133-.4.266-.733.4-1l.2-.1v-.2c.065,0,.083-.033.05-.1-.034-.066-.018-.1.05-.1.065-.065.101-.133.101-.2h.1v-.2c.065,0,.1-.1.1-.3l.101-.1c.065,0,.083-.016.05-.05-.034-.033-.018-.05.05-.05,0-.066-.017-.1-.05-.1-.034,0-.05-.033-.05-.1.065-.133.165-.25.3-.35.133-.1.266-.215.4-.35.065-.066.115-.25.149-.55.033-.3.083-.45.15-.45.065-.133.115-.2.149-.2.033,0,.083-.065.15-.2h-.1c.133-.133.215-.25.25-.35.032-.1.082-.216.149-.35.065-.066.133-.1.2-.1,0-.133.05-.283.15-.45.1-.166.183-.315.25-.45.133-.133.232-.266.3-.4.065-.133.133-.266.2-.4.133-.266.399-.6.8-1,.065,0,.1-.016.1-.05,0-.033.065-.05.2-.05.065,0,.083.017.05.05-.034.034-.017.05.05.05,0-.2.033-.365.101-.5,0-.133.032-.232.1-.3l.101-.1h-.101l.3-.3c0-.133.101-.3.301-.5l-.101-.1c0-.065.033-.1.101-.1h.1c-.2-.266-.135-.4.2-.4,0-.2.133-.433.399-.7.066-.133.133-.266.2-.4.065-.133.133-.266.2-.4.065,0,.1-.033.1-.1,0-.2.033-.366.101-.5v-.4c-.067,0-.101.067-.101.2v.1l-.1.1h-.1c0,.067-.035.134-.101.2l-.1.2c.065,0,.1.018.1.05,0,.034-.067.05-.2.05v.3l-.199.1v.1c-.135.267-.268.435-.4.5l-.3.6c-.067.067-.085.1-.05.1.032,0,.016.067-.051.2-.066,0-.1-.065-.1-.2,0,.134-.018.2-.05.2-.034,0-.05.035-.05.1v-.1c-.067.2-.168.435-.301.7-.066,0-.1.034-.1.1-.135.134-.217.25-.25.35-.034.1-.084.217-.15.35-.066.135-.134.25-.199.35-.067.1-.135.217-.2.35-.135.2-.367.467-.7.8-.067,0-.084.018-.05.05.032.034.016.05-.05.05-.067,0-.085-.016-.051-.05.033-.033.016-.05-.05-.05,0-.133.033-.232.101-.3-.067-.133-.101-.3-.101-.5.065-.065.083-.133.05-.2-.034-.065-.017-.133.051-.2,0-.333.133-.7.399-1.1,0-.133.016-.2.05-.2.033,0,.051-.065.051-.2h.1v-.1h.1c.066-.133.101-.25.101-.35s.032-.183.1-.25h.101v-.3l.1-.1c-.067.067-.1.067-.1,0,0-.133.032-.266.1-.4-.067,0-.135.034-.2.1.065,0,.101-.033.101-.1l.899-.9.4-.4c0-.133.065-.333.2-.6,0-.066.016-.133.05-.2.032-.065.05-.166.05-.3,0,.134,0,.167,0,.1,0-.065.033-.1.1-.1v-.2h.101c.065-.133.115-.233.149-.3.033-.066.116-.166.25-.3h-.199.199v-.2c0-.066.016-.1.051-.1.032,0,.05-.033.05-.1v-.1c0,.067-.034.1-.101.1,0-.133.016-.233.051-.3.032-.066.05-.166.05-.3,0,.067-.034.134-.101.2,0-.066.033-.1.101-.1.133-.266.266-.466.399-.6.133-.133.266-.333.4-.6.2-.266.383-.5.55-.7.166-.2.315-.4.45-.6v-.3c0-.066.033-.1.1-.1l.2-.1c.133-.4.233-.666.3-.8,0-.133.016-.216.051-.25.032-.033.05-.083.05-.15h.1v-.2h.101c.065-.133.1-.233.1-.3,0-.065.033-.133.1-.2,0-.133.033-.2.101-.2v-.3h-.101c0-.133.016-.216.051-.25.032-.033.05-.116.05-.25l-.101.1.101-.1c.133-.133.266-.3.399-.5.133-.2.266-.366.4-.5.333-.466.533-.866.6-1.2v-.2c0-.066.033-.133.101-.2.065-.065.2-.1.399-.1-.199-.266-.066-.533.4-.8-.135.134-.2.234-.2.3h.101v-.1c0-.065.016-.083.05-.05.032.034.05.017.05-.05h.2c0-.066-.034-.1-.101-.1l.101-.1c.065.067.1.084.1.05,0-.033.033-.016.101.05l-.101-.1h.101c0-.2.032-.366.1-.5-.067,0-.135.034-.2.1.065,0,.101-.033.101-.1.133-.133.3-.333.5-.6.199-.266.365-.465.5-.6.065-.065.115-.133.149-.2.033-.066.083-.133.15-.2,0-.133.065-.333.2-.6l-.101.1.101-.1c0-.065.032-.133.1-.2,0-.133.016-.216.05-.25.033-.033.05-.083.05-.15v-.1c0-.133.101-.2.301-.2v-.1l.1-.1v-.1c0-.2.065-.366.2-.5h.2v-.1h-.2c.133-.2.232-.383.3-.55.065-.166.166-.316.3-.45,0-.2.033-.333.101-.4-.067.067-.135.167-.2.3v-.2h.1c.065-.066.101-.133.101-.2.065,0,.1-.065.1-.2,0,.067.033.067.1,0l.101-.2c.065-.066.165-.233.3-.5h.1c0-.066.016-.116.051-.15.032-.033.016-.116-.051-.25h.101-.2c.065-.066.1-.133.1-.2,0-.065.033-.166.101-.3l-.101.1.801-.8v-.3c.133-.266.232-.483.3-.65.065-.166.165-.35.3-.55,0-.065.033-.116.1-.15.066-.033.101-.083.101-.15h.1l.101-.1v-.1c-.067,0,.032-.065.3-.2,0-.2.1-.3.3-.3v-.2l.1-.1h-.199c.065-.066.1-.133.1-.2,0-.065.033-.133.1-.2-.066,0-.1.035-.1.1v-.1c.133-.133.283-.3.45-.5.165-.2.315-.365.45-.5.065,0,.133-.033.199-.1v-.1h.2v-.3l.101-.1h-.101c0-.2.033-.333.101-.4h-.101.101c0-.065.133-.232.399-.5l.3-.3.2-.2c.133-.133.3-.283.5-.45.2-.166.366-.35.5-.55,0-.065.016-.133.05-.2.033-.066.051-.133.051-.2h.399c0-.4.266-.6.8-.6h-.199c0-.133.032-.215.1-.25.065-.033.1-.115.1-.25,0,.067-.066.1-.199.1h.1l.1-.1c.133-.065.283-.183.45-.35.166-.166.315-.283.45-.35.133-.133.232-.2.3-.2l.4-.2.2-.2c.065,0,.1-.033.1-.1-.067,0-.084-.016-.05-.05.032-.033.016-.05-.05-.05,0-.133.032-.232.1-.3-.067-.065-.1-.233-.1-.5.133-.133.183-.216.149-.25-.034-.033-.017-.116.05-.25h-.1c.133-.2.216-.383.25-.55.033-.166.115-.35.25-.55,0-.065.016-.116.05-.15.033-.033.05-.083.05-.15,0,.067.033.067.101,0l.1-.1h.101v-.4c.133-.266.199-.5.199-.7.066-.133.133-.233.2-.3.065-.066.133-.133.2-.2v-.4c.065-.133.1-.183.1-.15,0,.034.033-.016.101-.15v-.1c.065,0,.1-.066.1-.2,0-.065.016-.133.05-.2.033-.066.051-.133.051-.2-.067.067-.101.067-.101,0,0-.065.065-.133.2-.2v-.4c0-.133.065-.333.2-.6.133-.065.266-.266.399-.6v-.3c0-.065.016-.116.051-.15.032-.033.05-.116.05-.25,0-.133.065-.266.2-.4.065-.066.1-.133.1-.2l.3-.6v.1c.065-.2.133-.4.2-.6.065-.2.133-.365.2-.5l.2-.2c.065-.133.1-.25.1-.35s.033-.216.1-.35l.301-.6c.065-.133.199-.3.399-.5.133-.266.2-.465.2-.6.2-.2.365-.433.5-.7.133-.133.232-.266.3-.4.065-.133.166-.266.3-.4.133,0,.184-.016.15-.05-.034-.033.016-.083.15-.15.065,0,.082.034.05.1-.034.067-.018.1.05.1-.067.134-.1.234-.1.3,0,.067-.035.167-.101.3.065.067.05.15-.05.25-.1.1-.15.217-.15.35-.066.134-.1.234-.1.3,0,.067-.034.167-.1.3l-.301.9c-.134.2-.267.5-.399.9,0,.135-.067.334-.2.6.065-.065.083-.065.05,0-.034.067-.084.067-.149,0l-.101.3c-.067.134-.234.4-.5.8h.101c-.067,0-.101.034-.101.1l-.1.2v.3c0-.066.032-.1.1-.1,0,.134-.017.25-.05.35-.034.1-.05.217-.05.35,0-.066.032-.133.1-.2,0,.067-.017.1-.05.1-.034,0-.05.034-.05.1-.067.067-.2.367-.4.9l-.1.2c.065-.065.1-.115.1-.15,0-.033.033-.083.101-.15.065-.133.165-.266.3-.4l.1-.1v-.4c.065-.133.166-.266.3-.4.133-.133.233-.266.301-.4v-.1l.199-.5v-.3c0-.065.033-.1.101-.1v-.1c.133-.133.2-.266.2-.4.065-.2.133-.365.199-.5.066-.133.133-.266.2-.4.065-.065.101-.133.101-.2.065-.066.1-.133.1-.2,0-.065.033-.133.1-.2.133-.133.2-.232.2-.3,0-.065.033-.133.101-.2.065-.133.149-.283.25-.45.1-.166.183-.316.25-.45,0-.065.032-.133.1-.2.133-.266.232-.5.3-.7,0-.133.016-.216.05-.25.033-.033.051-.083.051-.15,0-.066.065-.166.199-.3v-.2c0,.067.016.084.051.05.032-.033.05-.016.05.05v-.1h.1c0-.133.101-.2.3-.2l-.1-.1c.065,0,.1.035.1.1v-.2l.101-.1h-.101v-.3c.066,0,.116-.016.15-.05.033-.033.083-.05.15-.05.133-.133.232-.2.3-.2.333-.133.532-.266.6-.4v-.2h.2l.2.2c-.067-.333.1-.433.5-.3-.067,0-.117.018-.15.05-.034.034-.084.05-.149.05h.1v.1c0-.065.033-.1.1-.1l.101.1v-.1h.1c0,.067.033.134.101.2l-.101-.1h.3v.1l.101-.1v.1c.065,0,.1.034.1.1v-.1c0-.133.016-.216.05-.25.033-.033.051-.116.051-.25.065-.333.149-.633.25-.9.1-.266.215-.533.35-.8.065-.065.083-.1.05-.1-.034,0,.016-.033.15-.1,0,.067.032.1.1.1v.5c.065.067.101.268.101.6-.067.134-.085.267-.051.4.033.135.051.268.051.4,0,.334-.018.634-.051.9-.034.267-.084.567-.149.9,0,.134-.018.234-.05.3-.035.067-.051.167-.051.3,0-.133,0-.15,0-.05s-.034.117-.1.05v.3c-.067.2-.1.384-.1.55,0,.167-.035.317-.101.45v-.1c0,.067-.034.117-.1.15-.067.034-.101.017-.101-.05v.6l.101-.1h.1v.7c.065-.066.101-.133.101-.2l-.101.1c-.134.2-.25.5-.35.9-.101.4-.218.7-.351.9-.334.8-.5,1.435-.5,1.9v.3c.066,0,.051.084-.05.25-.1.167-.217.217-.35.15.2.2.232.467.1.8.065.134.05.567-.05,1.3-.1.734-.284,1.134-.55,1.2-.335.534-.468,1.1-.4,1.7.065.6-.067,1.1-.399,1.5-.468,1.067-.7,2.1-.7,3.1s-.101,2.034-.3,3.1c-.135.2-.234.4-.301.6-.066.2-.034.367.101.5h-.2l.1.2h-.1c-.135.734-.067,1.334.2,1.8-.135.067-.2.184-.2.35,0,.167-.067.317-.2.45-.334.867-.467,1.784-.399,2.75.065.967.065,1.95,0,2.95h-.2c-.067,0-.101.067-.101.2h.4c-.334.334-.417.717-.25,1.15.166.435.05.817-.35,1.15l.5.3v3.5l-.7,1.3c.065.334.115.65.149.95.033.3.083.617.15.95l-.4.2v.6c.066,0,.066-.033,0-.1.066.267.101.667.101,1.2,0,.067-.018.117-.05.15-.035.034-.051.117-.051.25l.101.3v.3l-.101.1c0,.067.033.134.101.2v.4c0-.065.016-.083.05-.05.033.034.016.117-.05.25v.1l.1.2c.065.135.065.285,0,.45-.067.167-.1.35-.1.55-.067.067-.034.268.1.6.133.334.166.535.101.6v.5-.1c0,.467.032.8.1,1-.067.067-.1.134-.1.2.065.134.1.3.1.5s.033.4.1.6v1c0,.667-.034,1.167-.1,1.5-.067.067-.084.1-.05.1.032,0,.016.035-.05.1,0,.067-.035.067-.101,0v-.1l-.2-.4c-.066-.065-.1-.133-.1-.2,0-.066-.034-.166-.1-.3,0-.065-.067-.233-.2-.5-.067-.133-.101-.333-.101-.6v.7c0,.334.033.6.101.8,0-.065.016-.1.05-.1.033,0,.05.034.05.1l-.1.1v-.1.2h.2c-.135.134-.135.2,0,.2.133,0,.266.034.399.1l-.3.2.1.3c-.066,0-.134.035-.199.1,0,.067.032.117.1.15.065.035.133.117.2.25l.3-.2c-.067,0-.1.034-.1.1-.535.6-.7.967-.5,1.1.199.135.266.234.199.3l-.1-.1c.065.067.1.2.1.4.066-.065.116-.1.15-.1.033,0,.083-.033.15-.1.065,0,.115.017.149.05.033.034.116.05.25.05.065,0,.116-.05.15-.15.032-.1.05-.116.05-.05h.2c.065,0,.1-.033.1-.1.065,0,.133-.033.2-.1,0-.065.065-.065.2,0v-.1l.1-.1c.133-.133.266-.183.4-.15.133.035.266.05.399.05v-.1c.066.067.184,0,.351-.2.165-.2.25-.232.25-.1v-.2h.3c.266-.133.5-.233.7-.3.065,0,.1.034.1.1.133-.133.25-.215.351-.25.1-.033.215-.083.35-.15.133-.065.232-.1.3-.1.065,0,.166-.033.3-.1.266-.066.633-.1,1.101-.1l.1.1h.101l.1-.1c.133-.066.266-.1.4-.1.133,0,.232-.033.3-.1.2-.065.5-.1.899-.1h.2c.133.067.15.1.05.1-.1,0-.117.035-.05.1-.067,0-.167.067-.3.2.133.134.1.2-.1.2.065.067.133.1.199.1l.101.1v.1c-.067,0-.101.017-.101.05,0,.034-.034.05-.1.05,0,.135-.018.2-.05.2-.034,0-.05.067-.05.2-.067,0-.168.067-.301.2h.101c-.2.2-.4.3-.601.3,0,.067-.066.1-.199.1h-.2c-.067,0-.117.018-.15.05-.034.034-.084.05-.149.05l-.101.1v.1c.065,0,.101-.033.101-.1h.3c.133-.065.266-.116.399-.15.133-.033.266-.083.4-.15.266-.133.5-.2.7-.2.399-.133.633-.2.7-.2h.1v-.1.1c0-.2.166-.3.5-.3h.1c.133-.065.366-.1.7-.1-.067,0-.1-.033-.1-.1l.2.1c.532-.133.933-.2,1.199-.2h.4c-.067,0-.1.067-.1.2h-.101v.1h-.2l.5.3c.066-.065.051-.15-.05-.25-.1-.1-.084-.15.05-.15.133.067.2.167.2.3,0,.134.133.167.4.1.133.067.25.035.35-.1.101-.133.25-.133.45,0,.133-.133.4-.083.8.15.4.234.601.25.601.05l.199.2c.066-.066.166-.1.301-.1.065,0,.065-.033,0-.1v-.1.1-.1c.065,0,.115.05.149.15.033.1.116.15.25.15v-.1c.065.067.133.117.2.15.065.035,0,.05-.2.05.133.134.283.217.45.25.166.034.35.117.55.25.266.134.5.234.7.3ZM447.072,109.132c.134,0,.134.016,0,.05-.133.033-.166.083-.101.15-.065,0-.165.065-.3.2l-.1-.3h.1c.135,0,.2-.017.2-.05,0-.034.067-.05.2-.05ZM446.672,109.532l.3.3h-.1l-.2-.3ZM448.272,98.932c-.066,0-.101-.033-.101-.1,0-.066.034-.1.101-.1h-.101.101c-.066,0-.101.067-.101.2h.101ZM449.472,111.232l-.1-.1h.1v.1ZM449.872,111.932c0-.067-.033-.134-.1-.2.066-.067.1-.2.1-.4v-.1h.1-.1l.1-.1c.067,0,.101.033.101.1-.065-.067-.101-.067-.101,0h.101c0,.065-.065.3-.2.7ZM449.972,96.132c-.065,0-.1.034-.1.1.067-.066.1-.133.1-.2v.1ZM450.072,95.832v-.1.1ZM450.172,111.132l-.1-.1h.1v.1ZM450.172,111.132l-.1.1c0-.067.034-.1.1-.1ZM450.272,110.832h-.101c.067,0,.085.016.05.05-.032.033-.016.05.051.05v-.1ZM451.072,104.732c.067-.066.067-.133,0-.2,0,.134-.016.217-.05.25-.033.035-.051.117-.051.25.067-.065.101-.166.101-.3ZM451.472,103.832v-.1l-.1.1v.1-.1c0,.067-.033.134-.1.2.066-.065.134-.1.199-.1v-.1ZM451.672,93.732c-.065,0-.115.017-.149.05-.033.035-.083.05-.15.05l.1.2c0-.065.067-.166.2-.3ZM451.572,112.432c0-.067.034-.134.1-.2v-.4.2c0,.066-.032.1-.1.1.067,0,.1.016.1.05,0,.033-.032.05-.1.05v.2ZM452.072,93.132c0,.067-.016.1-.05.1-.033,0-.051.034-.051.1v-.4c.135-.4.268-.7.4-.9h.2c-.133.134-.233.334-.3.6-.066.267-.133.4-.2.4v.1ZM460.272,96.532l.3.1-.4.4.101-.5ZM460.872,77.832c.133-.333.25-.6.35-.8.101-.2.184-.433.25-.7l-.1.1h-.1l-.301.6h-.1v.4c-.067.067-.1.135-.1.2,0,.067-.035.167-.101.3l.101-.1-.101.1v.4c-.2.067-.3.167-.3.3v.1h.2v-.1c.065-.133.115-.266.149-.4.033-.133.083-.266.15-.4ZM460.772,81.532c-.067,0,0-.1.199-.3h-.1v.3h-.1ZM465.472,89.832c-.267.067-.6.234-1,.5,0-.066.033-.066.101,0-.135.067-.234.1-.3.1-.067,0-.168.035-.301.1v-.3h.101c-.067,0-.101.034-.101.1.133,0,.2-.033.2-.1h.4l.3-.3c-.2.2-.3.268-.3.2.065.067.165.034.3-.1.133-.133.232-.2.3-.2h.3c.133,0,.233-.033.301-.1l-.101.1h-.2ZM466.572,90.832l.2-.2-.101.1-.1.1ZM467.172,64.932c.466-.666.733-1.232.8-1.7-.134.134-.199.267-.199.4-.268.4-.435.767-.5,1.1-.067.067-.15.134-.25.2-.101.067-.185.135-.25.2h.199c.133-.065.166-.083.101-.05-.067.034-.101.084-.101.15.133-.066.2-.166.2-.3ZM467.472,82.632l-.1-.1c0,.134-.067.267-.2.4l.3-.3ZM479.972,57.532c0-.065.033-.1.101-.1v-.2c-.2.534-.4,1-.601,1.4-.199.4-.467.767-.8,1.1-.2-.266-.217-.25-.05.05.166.3.183.317.05.05l-.399.4v.1c0,.134.065.334.199.6.133.268,0,.435-.399.5-.2-.133-.268-.1-.2.1.065.2.033.234-.1.1,0,.4-.085.717-.25.95-.168.234-.335.467-.5.7-.168.234-.335.484-.5.75-.168.267-.25.634-.25,1.1v-.1l-.2.2.3.1c-.135.067-.217.217-.25.45-.034.234-.117.285-.25.15-.135-.133-.217-.133-.25,0-.034.135-.117.234-.25.3.133.067.2.084.2.05,0-.033.032-.05.1-.05-.067.067-.067.2,0,.4-.399.134-.634.384-.7.75-.066.367-.267.617-.6.75l.1.3c-.334.2-.5.535-.5,1s-.267.768-.8.9c-.267,1-.534,1.934-.8,2.8-.135.267-.284.55-.45.85-.167.3-.417.45-.75.45-.334.334-.467.65-.399.95.065.3,0,.617-.2.95-.268-.2-.417-.2-.45,0-.034.2-.117.334-.25.4.333.134.4.234.2.3-.2.067-.234.167-.101.3l-.3-.1c-.067.134-.134.284-.2.45-.066.167-.167.35-.3.55v-.1c-.134-.133-.185-.133-.149,0,.032.134.016.234-.051.3l.2.3-.3-.2v.2l-.1-.1c-.2.134-.285.25-.25.35.032.1.149.184.35.25-.067.067-.15.084-.25.05-.1-.033-.15-.016-.15.05,0,.067.133.1.4.1-.135.067-.25.117-.35.15-.101.034-.15.15-.15.35l-.1-.2c0,.134-.051.217-.15.25-.1.034-.117.117-.05.25.133-.066.232-.083.3-.05.065.035.133.018.2-.05l.399-.2h.4c0-.065.033-.1.1-.1l.4-.2c-.2-.2-.1-.233.3-.1h.101c0-.065.032-.116.1-.15.065-.033.1-.083.1-.15.133-.066.316-.1.551-.1.232,0,.449-.033.649-.1.065,0,.266-.1.601-.3.332-.2.532-.3.6-.3.133-.065.232-.1.3-.1.065,0,.133-.033.2-.1v.1c.533-.2.9-.4,1.1-.6h.301c.133-.133.315-.216.55-.25.232-.033.45-.116.649-.25.133-.066.301-.116.5-.15.2-.033.4-.116.601-.25.333-.066.633-.116.899-.15.266-.033.566-.083.9-.15h-.1.1v-3.8l.1.1c.066-.4.15-.816.25-1.25.101-.433.083-.816-.05-1.15v-.5c0-.133.016-.232.05-.3.033-.065.051-.166.051-.3v-1.7c-.067-.266-.101-.5-.101-.7s-.034-.4-.1-.6c.065-.133.1-.283.1-.45,0-.166.033-.35.101-.55,0-.4-.035-.666-.101-.8,0-.133-.017-.233-.05-.3-.034-.066-.05-.133-.05-.2-.067,0-.067-.116,0-.35.065-.232.165-.35.3-.35-.268-.266-.385-.566-.35-.9.032-.333.115-.666.25-1,0,.135-.018.268-.051.4-.034.134-.017.267.051.4l.1-.1c-.067,0-.1-.1-.1-.3,0-.066.016-.1.05-.1.032,0,.05-.033.05-.1.065-.065.083-.1.05-.1-.034,0-.017-.033.05-.1,0-.065-.034-.1-.1-.1v-.1c.065.067.1.034.1-.1,0-.133.033-.133.101,0v-.3c0,.067-.034.067-.101,0,.066-.066.101-.166.101-.3v-.8c.065,0,.1.034.1.1,0,.067.016.1.05.1.033,0,.051.035.051.1v-.5h.1c-.067,0-.1-.033-.1-.1.065-.065.065-.2,0-.4-.067-.2-.067-.3,0-.3v.4-.1c.065,0,.065-.065,0-.2-.067-.133-.067-.2,0-.2v-.1h-.101v-.1h.101v-.4c.065,0,.082.035.05.1-.034.067-.018.067.05,0,0,.134,0,.167,0,.1,0-.066-.034-.066-.1,0,.065.067.133.067.199,0v-.4l.101-.1h-.101v-.2ZM468.372,62.532v-.1c-.135,0-.2.035-.2.1h.2ZM469.472,81.532c-.066.267-.3.4-.699.4l-.301.15c-.066.034-.167.084-.3.15.333-.066.601-.116.8-.15.2-.033.4-.183.601-.45l-.101-.1ZM470.772,86.932c-.335.135-.65.285-.95.45-.3.167-.617.217-.95.15l-.3.4h.2c.065,0,.133-.033.199-.1.133-.133.233-.2.301-.2.065,0,.133-.033.199-.1.133.134.2.134.2,0,.133,0,.2-.033.2-.1.065,0,.133-.033.2-.1-.135.067-.167.067-.101,0,.066-.066.233-.1.5-.1l.101-.1.1-.1.101-.1ZM468.872,81.832c.065,0,.1-.033.1-.1h.101c-.067.067-.135.1-.2.1ZM469.072,61.332l-.101.1c0-.065.033-.1.101-.1ZM469.172,60.932c-.067,0,0-.1.2-.3.065-.133.115-.216.15-.25.032-.033.082-.116.149-.25,0,.134-.034.2-.1.2v.1h-.101c-.066,0-.084.035-.05.1.033.067.016.134-.05.2,0,.067-.018.117-.05.15-.034.034-.05.117-.05.25h.1l-.1.1h-.2c.065-.066.1-.166.1-.3ZM470.472,62.932h.101v-.2c0,.134-.101.2-.3.2h.199ZM470.272,81.132c.133.134.232.167.3.1.065-.066.133-.1.2-.1l-.101-.1c-.067,0-.117.017-.149.05-.035.034-.117.05-.25.05ZM470.572,88.632c-.067,0-.101.034-.101.1h.101v-.1ZM471.072,61.832c-.067,0-.085.017-.05.05.032.034.016.05-.051.05h.101l.1-.2c-.067,0-.1.034-.1.1ZM471.372,61.332c-.135.134-.2.234-.2.3l.2-.2c0-.065.016-.115.05-.15.033-.033.05-.083.05-.15,0-.133.016-.2.051-.2.032,0,.05-.033.05-.1l-.101.1c-.066,0-.1.035-.1.1v.3ZM471.672,60.732c0-.133.065-.266.2-.4-.067.067-.135.1-.2.1v.3ZM471.772,86.332c.065-.066.165-.1.3-.1h-.101l-.1.1h-.1ZM472.272,80.432c0,.067-.035.1-.101.1h.101v-.1ZM473.072,79.832c-.067,0-.117.017-.15.05-.034.034-.084.05-.149.05l-.101.1h-.1c.065,0,.133.035.2.1l.3-.3ZM472.972,57.232l.101-.1h-.101l.101-.1c0,.067.032.067.1,0,0-.065.033-.1.101-.1l-.101-.1h.2v-.2c-.135.134-.234.267-.3.4-.067,0-.101.035-.101.1v.1ZM474.572,79.332c-.067,0-.101-.033-.101-.1l-.3.2h-.2c-.066.067-.134.1-.199.1.065.067.133.1.199.1l.601-.3ZM475.172,50.032c.065,0,.166-.065.3-.2l.101-.1c-.067.134-.15.217-.25.25-.101.034-.185.117-.25.25.065-.066.1-.133.1-.2ZM477.272,78.232c.199,0,.35-.066.449-.2.101-.133.216-.266.351-.4-.067,0-.167.067-.3.2-.135,0-.234.05-.301.15s-.167.184-.3.25h.101ZM477.272,45.432h.1c.065-.065.1-.133.1-.2,0-.066.033-.133.101-.2h-.101v.2l-.199.2ZM477.572,45.032c0,.134-.034.2-.101.2.066-.066.101-.133.101-.2ZM478.672,60.232c-.134,0-.217.017-.25.05-.034.035-.084.05-.149.05,0-.133.065-.2.199-.2v.1h.2ZM478.472,77.432c.133.2.301.234.5.1-.066-.065-.1-.2-.1-.4l-.6.3v.1c0-.065.065-.1.199-.1ZM478.672,77.032h-.2v-.1c.133,0,.266-.065.4-.2v.3h-.2ZM479.672,98.232h-.1.1ZM480.272,40.132l-.101.1h-.1l.2-.1ZM480.372,56.832c-.067.067-.1.117-.1.15,0,.034-.067.117-.2.25h.3v-.4ZM481.772,36.432l-.2.2h.1l.101-.1v-.1ZM482.272,37.832h.1-.1v.1h-.2v.1l.1-.1v.1h-.1v.2l.2-.2h-.101.101v-.2ZM482.472,39.632l.101-.1h-.101v.1ZM482.572,40.832c0-.2.032-.3.1-.3v-.1c0,.067-.017.1-.05.1-.034,0-.05.067-.05.2v.1ZM482.772,106.632c-.067-.133-.101-.3-.101-.5l.101.2v.3ZM483.872,38.832c-.067,0-.135.034-.2.1-.067.067-.134.1-.2.1s-.134.035-.199.1h-.101l-.1.1-.101.1h.101l.1-.1.101.1v-.1c0,.067.032.1.1.1v.3l.5-.8ZM483.272,39.832h-.101v-.1c.065,0,.101.034.101.1v-.1h-.2l.1-.1c0,.067.033.1.101.1v-.1.3-.1ZM485.072,35.232h-.2l-.1.1h-.2c0,.067-.034.1-.101.1l-.199.2c.065,0,.1.017.1.05,0,.035-.067.018-.2-.05l-.1.1v.2l-.101.1h.2v-.1c.065,0,.101.067.101.2.065,0,.1.034.1.1h.1l-.1-.1h.1c.066,0,.083-.033.051-.1-.035-.065-.018-.065.05,0l.1-.1v.2c0-.065.033-.1.101-.1h.1v-.2.1-.1h.1-.1l.1-.1v.1l.101-.4v-.2ZM484.672,37.132h-.1c-.067.134-.135.234-.2.3.133,0,.2-.033.2-.1h.1v-.2ZM485.072,35.232l.1-.1h.101-.2v.1ZM485.372,113.032c0-.134-.018-.217-.05-.25-.034-.034-.05-.084-.05-.15-.135-.067-.168-.1-.101-.1.065,0,.101-.034.101-.1.065.133.1.233.1.3,0,.065.033.166.1.3v.2c-.066-.067-.1-.134-.1-.2ZM485.772,113.832c-.067,0-.101-.018-.101-.05,0-.034-.034-.05-.1-.05.065,0,.1.033.1.1h.101ZM485.872,114.532c.133-.334.15-.517.05-.55-.1-.035-.185-.05-.25-.05,0,.066.016.116.05.15.033.033.051.083.051.15,0,.065.016.116.05.15.032.033.05.083.05.15ZM485.972,115.132c0-.067.016-.1.051-.1.032,0,.05-.034.05-.1h-.2l.1.2ZM486.172,33.232c.065,0,.101-.033.101-.1l-.101.1ZM486.272,32.732h.199v.4c0-.133-.066-.266-.199-.4ZM488.172,30.232c-.067,0-.134-.033-.2-.1v.1h.2ZM488.272,30.132c-.067,0-.101-.016-.101-.05,0-.033.033-.05.101-.05v.1ZM489.572,73.632c.065.067.133.067.2,0v-.1h-.101v.1h-.1c0-.065-.018-.1-.05-.1-.035,0-.051-.033-.051-.1v.1h-.1v.1h.2ZM489.872,114.032h.1l-.1-.1v.1ZM489.872,113.932c.065,0,.1.033.1.1l-.1-.1ZM489.872,114.232v-.1h.1-.1c.065,0,.083.016.05.05-.034.033-.017.05.05.05h-.1ZM490.372,120.632v.1c.065,0,.1-.035.1-.1v.1h-.1v-.1ZM490.472,120.632h.101-.101ZM490.672,118.132v.1l-.1-.1h.1ZM491.172,122.732h-.1.1ZM491.372,122.732c0-.067.033-.1.1-.1-.066,0-.1.033-.1.1ZM491.472,22.632c.066-.133.101-.3.101-.5,0-.065.032-.1.1-.1h.2v-.2h.1c0,.067.066.034.2-.1,0-.066-.034-.1-.1-.1.065-.065.1-.065.1,0h.101-.101v.1-.1.1l-.1.2v.3l-.2.2v-.1c-.135.067-.135.1,0,.1h-.2v.1-.1.2h-.2.2-.1v.1c0,.067-.034.134-.101.2v-.3ZM491.972,107.232v.1h.101-.101c.066,0,.101-.035.101-.1h-.101ZM492.372,21.532v.1h.1-.1v-.1ZM492.672,21.332h-.1v-.1h.1v.1ZM493.472,78.832h.101v-.1l-.101.1ZM497.672,72.832c.133.067.233.1.3.1s.133.035.2.1l-.2-.3c-.066,0-.134.034-.199.1h-.101ZM505.672,71.632v-.1.1ZM506.572,73.332c-.135,0-.2-.033-.2-.1h.3c.065,0,.101.017.101.05,0,.035-.035.05-.101.05h-.1Z"/><path class="cls-1" d="M552.771,53.532c0,.2-.018.367-.051.5-.034.134-.05.3-.05.5,0,.467-.017.884-.05,1.25-.034.367-.084.717-.15,1.05,0,.067-.05.134-.149.2-.101.067-.085.167.05.3v1.3c0,.534-.067.967-.2,1.3-.134.334-.234.685-.3,1.05-.067.367-.1.817-.1,1.35-.135.134-.2.25-.2.35s-.067.217-.2.35h.2v.1c-.135,0-.167.017-.101.05.066.035.033.05-.1.05v.1c0,.134-.05.217-.15.25-.1.034-.084.084.051.15h-.2v.1h.1l-.1.1-.101.1c-.066,0-.1.035-.1.1-.067.2-.135.4-.2.6-.067.2-.1.467-.1.8.133,0,.165-.033.1-.1q-.067-.065,0,0c-.067.334-.117.734-.149,1.2-.035.467-.15.867-.351,1.2-.067.134-.185.25-.35.35-.167.1-.25.285-.25.55-.067,0-.05.1.05.3.1.2.083.3-.05.3-.067.134-.101.267-.101.4-.134,0-.199.034-.199.1,0,.2.032.334.1.4-.135.267-.2.5-.2.7.133-.065.2-.065.2,0,0,.067-.1.167-.3.3-.067.067-.067.134,0,.2.065.067.065.1,0,.1,0,.267.016.435.05.5.033.067.05.134.05.2,0,.2-.167.467-.5.8-.067.134-.3.4-.7.8v.1c-.066.067-.1.167-.1.3-.067.134-.1.467-.1,1-.135.6-.268.9-.4.9,0,.067.065.1.2.1-.135.2-.25.367-.351.5-.1.134-.184.267-.25.4-.134.334-.284.65-.449.95-.168.3-.317.617-.45.95-.067.067-.135.1-.2.1-.067,0-.135.034-.2.1,0,.2-.067.5-.2.9-.134.134-.217.3-.25.5-.034.2-.117.367-.25.5-.199.4-.434.717-.699.95-.268.234-.567.517-.9.85-.334.535-.8,1.035-1.4,1.5-.199.2-.367.484-.5.85-.134.367-.267.685-.399.95-.067.134-.185.217-.351.25-.167.034-.284.084-.35.15v.7c-.268.067-.4.134-.4.2-.199,0-.3.035-.3.1v.2c-.067.134-.117.234-.149.3-.035.067-.051.2-.051.4.066,0,.101.017.101.05,0,.034-.067.084-.2.15h-.1c0,.067-.035.1-.101.1.065.134.101.267.101.4-.067.2-.268.367-.601.5-.334.134-.567.367-.7.7v.1c-.066,0-.134.1-.199.3-.067.2-.135.417-.2.65-.067.234-.135.434-.2.6-.067.167-.135.217-.2.15v.2c-.067.135-.134.217-.2.25-.066.035-.167.117-.3.25-.399.535-.7.935-.899,1.2-.335.2-.5.267-.5.2-.067.134-.135.25-.2.35-.067.1-.167.285-.3.55-.067.134-.135.25-.2.35-.067.1-.135.217-.2.35-.135.334-.317.584-.55.75-.234.167-.417.385-.55.65-.335.134-.668.267-1,.4-.335.134-.668.267-1,.4v.4c-.067.134-.15.217-.25.25-.101.035-.185.117-.25.25.133,0,.183.067.149.2-.034.134-.185.2-.45.2,0,.135-.034.2-.1.2v.4c-.135.334-.435.567-.9.7-.467.134-.834.334-1.1.6v.1c-.067,0-.167.1-.3.3-.135.2-.284.417-.45.65-.167.234-.334.45-.5.65-.167.2-.284.267-.35.2v.2c-.135.135-.234.217-.301.25-.066.035-.167.117-.3.25-.334.268-.667.5-1,.7-.334.2-.6.467-.8.8-.2,0-.334.035-.4.1-.199.334-.467.6-.8.8-.2.267-.5.5-.899.7-.335.266-.668.483-1,.65-.335.166-.601.416-.801.75-1.199.533-2.267.9-3.199,1.1v.1c-.135-.067-.2-.067-.2,0,0,.065-.067.065-.2,0-.135,0-.15-.034-.05-.1.1-.067.115-.134.05-.2.133-.135.216-.268.25-.4.033-.134.15-.267.35-.4-.134-.267-.117-.467.051-.6.165-.134.315-.267.449-.4.066-.067.133-.15.2-.25.065-.1.133-.184.2-.25-.135,0-.234-.017-.3-.05-.067-.035-.135-.05-.2-.05-.4.2-.567.433-.5.7.065.266-.1.366-.5.3-.4.2-.635.35-.7.45-.067.1-.084.166-.05.2.033.033.033.083,0,.15-.034.065-.25.166-.65.3h-.199c-.468.133-.768.25-.9.35-.135.1-.367.216-.7.35-.334.133-.567.25-.7.35-.134.1-.267.183-.399.25.065.333-.067.465-.4.4-.334-.067-.667-.067-1,0l-.1.7c-.8,0-1.784.133-2.95.4-1.167.266-2.317.465-3.45.6-.2-.134-.467-.167-.8-.1-.334.065-.667.166-1,.3l.3.2h-2.3c-.667,0-1.268.033-1.8.1-.335,0-.768.016-1.3.05-.535.033-1.266.016-2.2-.05l-.601.3c.135-.134.085-.25-.149-.35-.233-.1-.45-.185-.65-.25-.532-.067-1.065-.084-1.6-.05-.533.033-1.065-.018-1.601-.15v-.1c.535.065,1.051.115,1.551.15.5.033,1.084.05,1.75.05h2.6v-.4c-.133-.067-.315-.1-.55-.1s-.45-.034-.65-.1l-.399.4c-1.133-.4-1.983-.567-2.551-.5-.565.065-1.149-.035-1.75-.3-.933-.134-1.532,0-1.8.4l-.2-.4v.4c-.465-.4-.85-.717-1.149-.95-.3-.234-.75-.484-1.351-.75l1.301.3c-.4-.267-.7-.534-.9-.8-.333-.134-.55-.167-.65-.1-.1.065-.215.1-.35.1-.333.2-.865-.067-1.6-.8l-.301-.9c-.065.066-.266.033-.6-.1-.333-.134-.666-.3-1-.5-.266-.267-.5-.534-.7-.8s-.365-.533-.5-.8c0,.334.034.65.101.95.066.3.134.616.199.95-.6-.467-1.165-.984-1.699-1.55-.533-.565-1.066-1.05-1.601-1.45,0-.066.05-.1.15-.1.1,0,.117-.1.05-.3-.2-.066-.4-.233-.6-.5v-.4c-.466-.333-.783-.4-.95-.2-.166.2-.383.3-.65.3h.101c-.266,0-.516-.25-.75-.75-.233-.5-.416-1.116-.551-1.85-.133-.533-.183-1.083-.149-1.65.034-.565-.016-1.016-.15-1.35,0,.135-.032.25-.1.35-.065.1-.065-.016,0-.35-.065,0-.101.1-.101.3s-.032.367-.1.5c0-.4.018-.7.05-.9.034-.2.085-.666.15-1.4-.266-.133-.333-.7-.2-1.7,0-.133.018-.266.05-.4.034-.133.05-.266.05-.4.135-.4.2-.732.2-1,.067-.065.135-.115.2-.15.067-.033.1.15.1.55.067-.333.367-.766.9-1.3,0-.133-.05-.183-.15-.15-.1.034-.199.084-.3.15-.1.067-.165.1-.2.1-.032,0,.018-.166.15-.5.135-.2.25-.333.35-.4.101-.066.2-.116.301-.15.1-.033.199-.133.3-.3.1-.166.185-.45.25-.85.2-.465.334-.933.399-1.4.067-.465.367-.866.9-1.2.135-.6.7-1.3,1.7-2.1.399-.466.784-.9,1.149-1.3.367-.4.518-.7.45-.9l.2.1c.135-.133.25-.3.35-.5.101-.2.185-.366.25-.5v.1l.2-.2h-.1c0-.065-.033-.1-.101-.1h-.1c.2-.2.385-.315.55-.35.167-.033.45-.216.851-.55l-.2-.1c.334-.065.617-.2.85-.4.234-.2.15-.033-.25.5.268-.133.601-.333,1-.6.4-.266.867-.565,1.4-.9.534-.266,1-.6,1.399-1,.2-.2.367-.333.5-.4,0,.334-.165.8-.5,1.4-.332.6-.699,1.1-1.1,1.5-.065.067-.133.1-.2.1-.065,0-.133.034-.2.1.067,0,.085.05.051.15-.033.1-.066.217-.101.35-.032.134-.032.25,0,.35.034.1.117.15.25.15-.6.534-.782.9-.55,1.1.234.2.317.467.25.8l-.9.3c-.133.268-.25.55-.35.85-.1.3-.216.584-.35.85h-.301c-.133.334-.215.667-.25,1-.032.334-.05.6-.05.8.2-.065.435-.232.7-.5l-.2.2-.1.2c-.733.534-1.25.984-1.55,1.35-.301.367-.551.75-.75,1.15-.2.534-.301,1.1-.301,1.7,0,.334.035.567.101.7.067.134.067.234,0,.3l-.101-.1c.067.667.085,1.3.051,1.9-.033.6-.016,1.2.05,1.8.067.534.149,1.1.25,1.7.1.6.35,1.2.75,1.8,0-.2.034-.366.1-.5,0-.266.067-.466.2-.6.135.134.317.3.55.5.234.2.484.435.75.7.468.667,1.067,1.334,1.8,2,.535.334,1.035.634,1.5.9.468.267.968.467,1.5.6.535.2.984.35,1.351.45.367.1.617.185.75.25.534.2,1.117.385,1.75.55.634.167,1.317.284,2.05.35.534,0,1.15-.016,1.85-.05.7-.033,1.351-.083,1.95-.15.666-.133,1.351-.25,2.05-.35.7-.1,1.351-.215,1.95-.35.533-.133,1.101-.25,1.7-.35.6-.1,1.232-.216,1.9-.35.732-.133,1.482-.333,2.25-.6.766-.266,1.516-.565,2.25-.9-.067,0-.168-.033-.301-.1-.066,0-.034-.033.101-.1.133-.065.165-.133.1-.2l.4-.4c.065-.065.165-.166.3-.3,0-.2.1-.383.3-.55.2-.166.366-.316.5-.45.133,0,.233-.065.3-.2.066-.133.166-.266.301-.4.532-.4.982-.766,1.35-1.1.365-.333.75-.6,1.15-.8.065-.133.165-.233.3-.3.133-.066.232-.166.3-.3-.067.134-.067.167,0,.1.065-.065.133-.065.2,0l.3-.2h.1c.2-.133.383-.283.551-.45.165-.166.383-.35.649-.55h-.3c.266-.065.4-.065.4,0,.133-.333.199-.533.199-.6h.2c-.134,0-.2-.016-.2-.05,0-.033-.034-.05-.1-.05.065-.466.2-.833.4-1.1-.067.067-.168.1-.301.1.133,0,.2-.033.2-.1.4-.133.866-.366,1.4-.7.532-.333.865-.565,1-.7.333-.333.716-.683,1.149-1.05.434-.365.716-.815.851-1.35,0-.066.016-.166.05-.3.033-.133.016-.233-.05-.3,0-.066.1-.15.3-.25s.433-.083.7.05c-.335-.465-.351-.833-.05-1.1.3-.266.649-.5,1.05-.7-.135.134-.25.267-.351.4-.1.134-.184.3-.25.5l.101-.1c.065.067.165.067.3,0-.135,0-.2-.05-.2-.15s.065-.183.2-.25c0-.065.033-.083.1-.05.066.034.101-.016.101-.15,0,.067.032.1.1.1.065,0,.133-.033.2-.1l-.1-.1c0-.066.032-.1.1-.1.065.134.133.15.2.05.065-.1.165-.083.3.05v-.1c-.135,0-.2-.033-.2-.1.133-.065.25-.1.351-.1.1,0,.183-.033.25-.1v-.2c0-.066.016-.166.05-.3.032-.133.149-.2.35-.2.133-.333.283-.65.45-.95.166-.3.416-.616.75-.95-.067-.133-.067-.25,0-.35.065-.1.133-.216.2-.35-.067.134-.018.167.149.1.166-.066.283-.066.351,0l.1-.4h.101c.133-.466.3-.833.5-1.1h-.101c.133-.133.2-.166.2-.1,0-.065.033-.15.1-.25s.066-.183,0-.25l.101-.1h-.3c.065-.266.1-.483.1-.65,0-.166.033-.315.1-.45-.066,0-.134.035-.199.1l.1-.1c.333-.2.716-.5,1.15-.9.433-.4.715-.666.85-.8.333-.466.633-.866.9-1.2.266-.333.399-.733.399-1.2v-.6c-.067-.066-.017-.15.15-.25.165-.1.415-.116.75-.05v-.2c-.2-.4-.185-.733.05-1,.232-.266.516-.466.85-.6v-.1c.133-.266.25-.5.351-.7.1-.2.216-.4.35-.6,0-.133.05-.283.15-.45.1-.166.149-.416.149-.75,0,.267.016.3.051.1.032-.2.115-.233.25-.1l.1-.5h.1c.2-.266.333-.533.4-.8.065-.266.166-.5.3-.7v.1c0-.266.065-.333.2-.2,0-.133.016-.25.05-.35.033-.1.016-.216-.05-.35l.1-.1c-.066.067-.117.084-.149.05-.034-.033-.085-.016-.15.05.065-.333.101-.6.101-.8v-.6l-.2.2c.065,0,.1-.065.1-.2.133-.133.315-.366.55-.7.233-.333.416-.633.551-.9.199-.8.433-1.333.699-1.6.333-.533.616-1.133.851-1.8.232-.666.282-1.266.149-1.8,0-.2-.034-.333-.1-.4-.135-.065-.1-.2.1-.4.2-.2.434-.3.7-.3-.399-.533-.534-1.033-.399-1.5.133-.465.332-.933.6-1.4-.067.334-.117.584-.15.75-.034.167-.05.317-.05.45v-.1c.133.134.2.1.2-.1-.067,0-.1-.033-.1-.1v-.1c0-.133.05-.2.149-.2.101,0,.15-.065.15-.2h.1c.133-.065.266-.166.4-.3,0-.065-.135-.1-.4-.1,0-.065.065-.133.2-.2.133.067.333.034.6-.1l-.1-.1h-.1.1l.1-.1v-.7l-.199.1.1-.1.1-.1v-.3c0-.133-.017-.266-.05-.4-.034-.133-.149-.233-.35-.3v-.2l-.4.2c-.067-.133-.134-.3-.2-.5-.066-.2-.134-.4-.199-.6,0,.134-.035.267-.101.4,0-.133.033-.233.101-.3.065-.333.082-.916.05-1.75-.034-.833-.05-1.483-.05-1.95.199-1.465.065-2.733-.4-3.8-.067-.133-.117-.233-.15-.3-.034-.065-.117-.2-.25-.4-.134,0-.149-.116-.05-.35.101-.232.283-.416.55-.55-.6-.2-.899-.565-.899-1.1s.133-1.166.399-1.9v1.6-.1c.2,0,.301-.065.301-.2-.067.067-.101.035-.101-.1,0-.133-.067-.233-.2-.3,0-.2.051-.315.15-.35.1-.033.115-.115.05-.25h.2v-.3c0-.065-.034-.1-.1-.1-.067-.065-.067-.133,0-.2.133.067.199.05.199-.05s.066-.15.2-.15v-.1c-.067.067-.134.067-.2,0,0-.266.033-.433.101-.5l-.101-.1c.066-.133.051-.232-.05-.3-.1-.065-.117-.133-.05-.2h.1v-.4l.101.1v.1l.2.1c-.067-.066-.085-.133-.051-.2.033-.065.016-.166-.05-.3v-.1h.2c-.067,0-.1-.033-.1-.1v-.1c.065-.133.032-.35-.101-.65-.134-.3-.167-.516-.1-.65-.067,0-.067.1,0,.3.065.2.133.334.2.4,0-.065-.035-.166-.101-.3-.134-.266-.167-.4-.1-.4v-.2h-.101v-.1c0,.067.016.084.051.05.032-.033.05-.016.05.05l.1-.2v-.2h-.1c0-.133.032-.233.1-.3.133.134.166.2.101.2,0-.133-.035-.233-.101-.3,0-.066.016-.133.05-.2.033-.065.051-.166.051-.3,0-.066-.085-.116-.25-.15-.168-.033-.218-.083-.15-.15,0-.065.016-.115.05-.15.033-.033.016-.116-.05-.25v-.2c-.067,0-.1-.016-.1-.05,0-.033-.035-.05-.101-.05,0-.133-.134-.266-.399-.4-.135.134-.234.184-.301.15-.066-.033-.034-.216.101-.55,0-.065-.018-.083-.05-.05-.035.034-.051.017-.051-.05h-.399c-.268-.133-.4-.333-.4-.6,0-.266-.067-.533-.2-.8l-.1-.1c.065,0,.033-.033-.1-.1-.135-.066-.367-.133-.7-.2-.067-.2-.15-.333-.25-.4-.101-.065-.117-.1-.05-.1h-.101c-.2-.065-.317-.133-.35-.2-.034-.066-.085-.166-.15-.3-.2-.133-.384-.25-.55-.35-.167-.1-.35-.183-.55-.25,0-.266-.034-.4-.101-.4-.134,0-.25-.016-.35-.05-.1-.033-.217-.05-.35-.05v.4h-.4c-.067.067-.117.034-.15-.1-.034-.133-.05-.1-.05.1v-.4.1c-.067,0-.1-.033-.1-.1-.135,0-.268-.016-.4-.05-.134-.033-.234-.05-.3-.05l.1.1c-.134,0-.267.05-.399.15-.135.1-.268.084-.4-.05-.067,0-.117-.033-.149-.1-.035-.065-.085-.1-.15-.1-.067.067-.1.134-.1.2h-.101l-.2-.1-.1.1h-.1c-.067,0-.101.035-.101.1v.2l.101.1-.2-.4v.5c-.135.067-.335.05-.601-.05-.267-.1-.467-.15-.6-.15,0-.133-.067-.066-.2.2-.134.267-.234.334-.3.2v.1h-.3c-.067.067-.135.1-.2.1-.067,0-.135.035-.2.1-.134,0-.2-.033-.2-.1-.134.067-.25.15-.35.25-.1.1-.217.185-.35.25-.135.067-.234.084-.301.05-.066-.033-.167.017-.3.15-.467,0-.899-.065-1.3-.2v.1l-.2-.2c-.399.134-.667.234-.8.3-.268.067-.534.15-.8.25-.268.1-.567.185-.9.25l2,1.8v-.1c-.399.334-.517.7-.35,1.1.165.4.083.734-.25,1-.2,0-.3.05-.3.15s.016.234.05.4c.032.167.065.317.1.45.033.135-.05.2-.25.2-.334.334-.384.617-.149.85.232.234.35.517.35.85,0-.133-.117-.15-.35-.05-.234.1-.25.217-.051.35,0,.067.101.185.301.35.199.167.199.317,0,.45-.135.135-.2.317-.2.55,0,.234-.034.417-.101.55h.101c-.335.935-.567,1.817-.7,2.65-.135.834-.534,1.584-1.2,2.25-.134-.065-.167-.083-.1-.05.065.034.149.084.25.15.1.067.165.117.2.15.032.035-.085-.016-.351-.15l-.2.5h.101c.065.2.25.417.55.65.3.234.15.417-.45.55-.134-.066-.2-.066-.2,0,0,.067.016.117.051.15.032.034.05.067.05.1,0,.034-.101-.016-.3-.15.199.467.25.867.149,1.2-.1.334-.217.65-.35.95-.135.3-.25.6-.351.9-.1.3-.084.685.051,1.15v-.1l-.2.4h.5c-.2.067-.268.234-.2.5.065.267,0,.334-.2.2-.2-.065-.3-.05-.3.05s-.067.217-.2.35h.3l.101.2c-.135.134-.2.234-.2.3h.1l.2.4v.1c0,.067.033.1.101.1-.135,0-.168.035-.101.1.065.067.065.1,0,.1v.1c.065.2.065.334,0,.4-.067.067-.067.167,0,.3h-.1c0,.067.016.084.05.05.033-.033.016.017-.05.15l-.101.3c0,.267-.034.55-.1.85-.067.3-.135.584-.2.85.133,0,.183-.033.15-.1-.034-.065-.018-.1.05-.1-.067.6-.135,1.15-.2,1.65-.067.5-.267.917-.6,1.25-.135.135-.284.25-.45.35-.167.1-.317.217-.45.35.065.2.101.367.101.5,0,.334-.035.534-.101.6-.067.134-.117.184-.149.15-.035-.033-.051.017-.051.15-.066.134-.1.234-.1.3v.3c-.067.2-.117.367-.15.5-.034.134-.05.267-.05.4.065-.133.101-.15.101-.05s-.101.217-.301.35c-.066.067-.066.1,0,.1s.066.035,0,.1c0,.067.016.15.051.25.032.1.05.285.05.55-.067.267-.25.55-.55.85-.301.3-.585.717-.851,1.25v.1c-.067,0-.117.134-.149.4-.035.268-.067.535-.101.8-.034.267-.084.517-.149.75-.067.234-.135.35-.2.35v.1c-.067.2-.15.367-.25.5-.101.135-.218.3-.351.5-.066.4-.184.785-.35,1.15-.167.367-.317.717-.45,1.05-.134.134-.2.234-.2.3-.066.334-.149.7-.25,1.1-.1.4-.217.867-.35,1.4,0,.067-.1.117-.3.15-.2.034-.3.084-.3.15l.6.1c-.334.134-.367.234-.1.3.266.067.3.167.1.3-.334-.065-.518-.1-.55-.1h-.25v.1c0,.135.032.2.1.2.065,0,.333.1.8.3-.334-.133-.566-.2-.699-.2-.135,0-.268-.033-.4-.1-.067.134-.1.25-.1.35s-.035.217-.101.35v.1-.1.2c-.067.067-.1.117-.1.15,0,.035-.034.084-.101.15l-.1.3c.2.2.3.4.3.6-.067,0-.084.017-.05.05.033.035.016.05-.05.05.065.067.05.1-.05.1-.101,0-.117.035-.051.1h-.1v.1l-.2.1c-.067.134-.2.234-.399.3-.2.067-.335.167-.4.3.333,0,.45-.016.35-.05-.1-.033-.017-.05.25-.05-.334.134-.5.267-.5.4.266.134.333.2.2.2-.134,0-.234.034-.3.1v.2l.1.1c-.134,0-.199.1-.199.3-.067,0-.101.134-.101.4-.067.067-.185.1-.35.1-.167,0-.25.067-.25.2-.067,0-.067.067,0,.2.065.135.065.2,0,.2-.067.067-.135.1-.2.1-.067,0-.1.067-.1.2h-.101v.2c0,.134-.017.234-.05.3-.034.067-.05.135-.05.2.133,0,.216.034.25.1.032.067-.085.167-.351.3-.134,0-.149.017-.05.05.101.034.116.05.05.05v.3c0,.135-.117.317-.35.55-.234.234-.417.45-.55.65v.1c-.067,0-.101.1-.101.3v.75c0,.234-.034.35-.1.35l.1.1c-.066.134-.134.2-.199.2-.067,0-.101.067-.101.2-.067.134-.134.334-.2.6-.066.267-.1.467-.1.6-.4,0-.6.034-.6.1-.067.2-.135.4-.2.6-.067.2-.167.467-.3.8-.067.134-.15.284-.25.45-.101.167-.185.417-.25.75-.135.334-.285.634-.45.9-.167.268-.385.467-.65.6-.267.134-.35.217-.25.25.101.035.016.05-.25.05-.134,0-.185-.05-.149-.15.032-.1.016-.15-.051-.15v-.2c-.134.134-.284.25-.449.35-.168.1-.218.185-.15.25.4,0,.5.035.3.1.065,0,.116-.016.15-.05.032-.033.083-.05.149-.05-.066.135-.149.2-.25.2-.1,0-.284.067-.55.2.333.134.351.3.05.5-.3.2-.517.367-.649.5-.268,0-.367-.066-.3-.2l-.5.6c0,.067.082.034.25-.1.165-.133.183-.065.05.2-.135.134-.268.167-.4.1-.134-.065-.267,0-.399.2-.2.134-.268.334-.2.6.065.267-.034.467-.3.6,0,.067-.135.15-.4.25-.268.1-.55.2-.85.3-.301.1-.535.217-.7.35-.167.134-.185.234-.05.3l-.301-.1c-.199,0-.3.1-.3.3s.033.3.101.3v.1h.199l-.199-.1c.133,0,.199.035.199.1-.134,0-.25-.016-.35-.05-.1-.033-.217.017-.35.15l.1.1c-.135,0-.234.05-.3.15-.067.1-.034.017.1-.25-.534.134-1.067.334-1.6.6-.333.2-.7.367-1.101.5v-.2c0,.067-.032.1-.1.1h.1c-.133,0-.183.017-.149.05.034.035-.016.084-.15.15-.133,0-.183-.05-.149-.15.034-.1-.016-.15-.15-.15v-.1l-.3.3.1.1-.2.1-.3.2c-.2.067-.266.034-.2-.1.067-.133,0-.2-.199-.2.199-.2.284-.383.25-.55-.033-.166.084-.35.35-.55-.266-.133-.333-.333-.2-.6.135-.266.2-.5.2-.7.135-.133.2-.3.2-.5s.034-.433.1-.7h-.1c.334-.733.584-1.366.75-1.9.167-.533.384-1.065.649-1.6,0-.2.035-.383.101-.55.067-.166.1-.383.1-.65,0,.2.034.234.101.1.066-.133.133-.2.199-.2l.2-.4c0-.133.065-.2.2-.2h.2c.065-.133.149-.283.25-.45.1-.166.183-.416.25-.75l-.2.1c0-.133.05-.466.15-1,.1-.533.282-1.066.55-1.6l-.2.2c0-.065.016-.115.05-.15.033-.033.05-.083.05-.15h.101c.2-1.065.433-1.8.7-2.2.933-.865,1.449-1.8,1.55-2.8.1-1,.516-1.866,1.25-2.6,0-.065.032-.116.1-.15.065-.033.133-.116.2-.25.065-.266.232-.6.5-1-.135-.2-.135-.433,0-.7.133-.266.266-.533.4-.8.065-.2.133-.366.199-.5.066-.133.101-.266.101-.4,0-.133.016-.266.05-.4.033-.133.016-.366-.05-.7.065.134.1.134.1,0,0-.133.065-.133.2,0v-.4h.1c.133-.133.216-.283.25-.45.033-.166.083-.315.15-.45v-.1l.1-.1v-.6c-.066.067-.1.084-.1.05,0-.033-.034-.016-.1.05,0-.133-.018-.3-.051-.5-.034-.2-.117-.466-.25-.8,0,.134-.034.267-.1.4v-.1l.1-.1c.2-.266.45-.65.75-1.15.301-.5.516-.85.65-1.05.2-.133.365-.333.5-.6.065-.466.166-.766.3-.9h.101c-.268-.066-.4-.066-.4,0h-.1l-.101-.1c-.067-.066-.117-.1-.149-.1-.035,0-.085-.033-.15-.1h-.2v-.1h.2c0-.065.033-.115.1-.15.066-.033.033-.05-.1-.05.133-.066.183-.116.15-.15-.035-.033.05-.05.25-.05-.067.067-.067.134,0,.2v-.4c.065-.333.199-.533.399-.6l.101-.2c-.135.067-.301.2-.5.4v-.2c0,.067.032.1.1.1v-.1l.1-.1c-.134,0-.199-.033-.199-.1h.1c-.067-.065-.167-.183-.3-.35-.135-.166-.268-.283-.4-.35.133,0,.183-.083.15-.25-.034-.166.016-.216.149-.15,0-.065-.034-.1-.1-.1,0-.133.065-.2.2-.2.133,0,.2-.033.2-.1h.1v-.2l.1-.2c.133-.133.25-.315.351-.55.1-.233.149-.45.149-.65-.066,0-.084.035-.05.1.033.067.016.1-.05.1.065-.4.115-.85.15-1.35.032-.5.115-.916.25-1.25.065-.133.133-.233.199-.3.066-.066.133-.166.2-.3.133-.065.133-.183,0-.35-.134-.166-.134-.283,0-.35l.2-.2v-.2c.266,0,.4-.166.4-.5,0-.133-.051-.216-.15-.25-.1-.033-.15-.083-.15-.15.2-.133.301-.333.301-.6-.135.067-.2.05-.2-.05s.165-.215.5-.35c0-.065-.034-.133-.101-.2-.066-.066-.034-.1.101-.1-.135-.133-.2-.216-.2-.25,0-.033-.034-.083-.1-.15.065-.333.25-.683.55-1.05.3-.365.516-.715.649-1.05v-.1c.066-.065.066-.416,0-1.05-.066-.633-.034-.95.101-.95v-.1c0-.266.032-.465.1-.6.065-.133.133-.266.2-.4,0-.333.05-.683.15-1.05.1-.366.25-.683.449-.95.133-.133.2-.232.2-.3,0-.466.016-.9.05-1.3.033-.4.083-.8.15-1.2.065-.333.183-.65.35-.95.166-.3.25-.615.25-.95.2-.533.466-1.016.801-1.45.332-.433.6-.983.8-1.65h-.101c.133-.065.184-.1.15-.1-.034,0,.016-.065.15-.2.133-.066.183-.033.149.1-.034.135-.017.167.05.1,0,.267.016.45.051.55.032.1.05.284.05.55.133.2.2.4.2.6s.032.367.1.5c-.135.334-.185.567-.15.7.033.135.051.268.051.4.465-.933.8-1.9,1-2.9.199-1,.365-1.965.5-2.9l1.399-2-.1-.1v.1c0,.067-.05.067-.15,0-.1-.065-.084-.065.05,0h-.699c-.067.067-.15.1-.25.1-.101,0-.185.067-.25.2.065.067.1.084.1.05,0-.033.033-.016.1.05-.134.067-.25.185-.35.35-.1.167-.217.317-.35.45-.067.067-.218.084-.45.05-.234-.033-.385-.05-.45-.05-.067,0-.084.067-.05.2.032.135.016.167-.05.1-.067.067-.101.084-.101.05,0-.033-.034-.016-.1.05,0-.065-.018-.1-.05-.1-.035,0-.051.035-.051.1v.2c-.066.134-.117.2-.149.2-.034,0-.05.067-.05.2.133.134.1.167-.101.1-.067,0-.084.017-.05.05.033.034.016.05-.05.05.065.067.1.167.1.3-.067.134-.25.184-.55.15-.3-.033-.518-.016-.65.05v.1c-.066,0-.134.167-.199.5-.067.334-.168.435-.301.3,0,.067-.167.167-.5.3-.066.134-.134.25-.199.35-.067.1-.135.217-.2.35-.067,0-.15-.033-.25-.1-.101-.066-.15-.033-.15.1-.067.134-.117.3-.149.5-.035.2-.117.434-.25.7-.067.134-.15.234-.25.3-.101.067-.185.167-.25.3-.335.134-.635.267-.9.4-.268.134-.534.234-.8.3-.135,0-.167.017-.101.05.066.034.033.017-.1-.05-.135,0-.185-.033-.15-.1.033-.066.016-.1-.05-.1v-.5c-.067.267-.134.467-.2.6-.066.134-.1.167-.1.1v.1c-.135.067-.268.1-.4.1-.134,0-.267.067-.399.2-.135.134-.284.267-.45.4-.167.134-.35.267-.55.4h-.4c-.134.267-.3.5-.5.7-.2.2-.367.367-.5.5-.134.134-.284.284-.45.45-.167.167-.316.317-.449.45-.4.2-.801.35-1.2.45-.4.1-.8.217-1.2.35-.135-.065-.185-.05-.15.05.033.1-.084.084-.35-.05-.067,0-.067-.033,0-.1.065-.066.065-.133,0-.2.065-.133.1-.233.1-.3,0-.066.033-.166.101-.3-.067-.133-.034-.266.1-.4.133-.133.2-.3.2-.5.266-.065.383-.15.35-.25-.034-.1.051-.216.25-.35h-.1c.133-.333.365-.633.7-.9.333-.266.665-.466,1-.6,0-.133.032-.233.1-.3.065-.066.133-.2.2-.4-.067.134-.15.25-.25.35-.1.1-.185.185-.25.25-.2.067-.3.117-.3.15,0,.034-.067.084-.2.15-.268,0-.35-.05-.25-.15.1-.1.016-.15-.25-.15.065-.133.1-.283.1-.45,0-.166.133-.316.4-.45-.268-.133-.4-.283-.4-.45,0-.166-.034-.383-.1-.65.333-.266.5-.5.5-.7s.033-.366.1-.5h-.1c.266-.533.516-1,.75-1.4.232-.4.45-.866.65-1.4,0-.133.05-.283.149-.45.101-.166.15-.316.15-.45,0,.067.016.067.05,0,.033-.065.083-.065.15,0l.1-.4c.065,0,.1-.016.1-.05,0-.033.033-.05.101-.05.133-.133.25-.266.35-.4.101-.133.216-.266.351-.4v-.2c.133-.065.199-.233.199-.5v.3c.066-.2.233-.333.5-.4v-.3l.101-.1c-.067.067-.15.084-.25.05-.101-.033-.185-.05-.25-.05.065-.133.149-.315.25-.55.1-.233.183-.416.25-.55-.067.067-.2.135-.4.2.2-.065.333-.133.4-.2.2-.133.5-.383.899-.75.4-.365.766-.715,1.101-1.05-.067,0-.101-.033-.101-.1v-.2c-.066,0-.1-.016-.1-.05,0-.033.033-.05.1-.05h.101l.1-.2h.2-.1v.2c.065,0,.082-.033.05-.1-.034-.065-.018-.033.05.1.133,0,.166-.033.1-.1-.066-.065-.1-.133-.1-.2h.8c0-.065.033-.1.101-.1h-.9.2v-.1l.1.1v-.1h.4-.4c-.067,0-.067-.033,0-.1h.4c-.2-.065-.25-.216-.15-.45.101-.232.15-.383.15-.45.065.067.1.067.1,0,0-.066.033-.066.101,0v-.1c0-.065.082-.083.25-.05.165.034.25.017.25-.05l.1.1.1-.1h.2c.133-.2.466-.4,1-.6-.067-.065-.117-.065-.149,0-.035.067-.117.067-.25,0,.199-.065.332-.15.399-.25.065-.1.166-.215.3-.35v-.1h.101l.2-.1c.133-.133.266-.233.399-.3.133-.066.266-.133.4-.2,0-.133.065-.2.2-.2.6-.4,1.133-.6,1.6-.6v-.1c.133-.066.3-.116.5-.15.2-.033.365-.116.5-.25-.135,0-.185-.033-.15-.1.033-.066.15-.033.351.1.065-.066.083-.133.05-.2-.034-.065-.018-.1.05-.1,0-.065.016-.116.05-.15.033-.033.051-.083.051-.15.133-.133.415-.216.85-.25.433-.033.815-.15,1.15-.35v-.1c.133.067.383-.116.75-.55.365-.433.582-.616.649-.55l.101-.1c.065-.066.149-.1.25-.1.1,0,.215-.033.35-.1h-.1.1v-.4h.2c0-.066.1-.066.3,0v-.1c0,.067.033.1.1.1.133,0,.2-.033.2-.1l.101.1v-.1.1c.399-.066.699-.166.899-.3h.3c.133-.2.366-.383.7-.55.333-.166.633-.416.9-.75.333-.133.649-.216.95-.25.3-.033.582-.116.85-.25.2-.065.383-.116.55-.15.166-.033.351-.05.55-.05h.7c0-.065-.034-.1-.1-.1l.1-.1v.2l.4-.1v.1-.1h-.2c-.067,0-.084-.016-.05-.05.032-.033.115-.05.25-.05v-.2c0-.065.016-.116.05-.15.033-.033.05-.083.05-.15h.101c0-.066.032-.033.1.1v-.1c.065-.066.115-.066.15,0,.032.067.05.067.05,0v.1c.133,0,.165-.016.1-.05-.067-.033-.034-.016.101.05,0,.067.032.1.1.1h.2c.133-.065.266-.083.399-.05.133.034.266.05.4.05,0-.065-.018-.083-.05-.05-.034.034-.05.017-.05-.05.133,0,.3-.033.5-.1.199-.066.433-.066.699,0,.133,0,.233.034.301.1.065.067.165.1.3.1v.1c.065,0,.133-.033.2-.1l.199-.1h.101c.065,0,.1.017.1.05,0,.034.033.05.101.05l.1.1c0-.065.033-.1.1-.1h.5c-.066-.133-.084-.2-.05-.2.033,0,.083.1.15.3.065,0,.1-.033.1-.1.065-.065.166-.133.3-.2.2,0,.366.067.5.2.133.135.366.234.7.3h.101c0,.067.215.034.649-.1.433-.133.65-.133.65,0v-.1c.133.134.3.2.5.2h-.101c.133,0,.301.034.5.1.2.067.366.1.5.1.066.067.133.1.2.1v.1c.133-.065.3-.083.5-.05.2.034.433.05.7.05.133.067.266.134.4.2.133.067.365.1.699.1.2.135.416.317.65.55.232.234.416.45.55.65v-.1c0,.134.016.185.05.15.033-.033.051.018.051.15.133.067.232.1.3.1.065,0,.165.035.3.1.266-.065.466-.065.6,0,.133.067.266.067.4,0-.067,0-.067.017,0,.05.065.034.065.084,0,.15.065,0,.115.017.15.05.032.035.082.05.149.05v.2c.133.067.315.134.55.2.233.067.416.167.551.3v-.1.2c.065,0,.133.034.199.1.066.067.166.067.301,0l.1.1v-.2c.133.067.35.117.65.15.3.035.582.117.85.25-.067-.133-.1-.266-.1-.4,0,.134.032.2.1.2.133.267.315.667.55,1.2.233.535.383.9.45,1.1.065.2.133.435.2.7.065.267.165.5.3.7.266.2.433.435.5.7l.1.1c.133.134.233.2.301.2.065,0,.1.1.1.3h.1v.3c0-.133.033-.216.101-.25.065-.033.1-.083.1-.15.266.267.633.5,1.101.7,0-.065-.035-.133-.101-.2.065,0,.101.067.101.2.065.334.165.8.3,1.4.133.6.232,1.067.3,1.4.065.467.15.934.25,1.4.1.467.383.9.85,1.3l.301.3c.065,0,.065.1,0,.3-.067.2-.268.334-.601.4.601.2.9.484.9.85s-.067.717-.2,1.05l.1.2h-.1c0,.134.016.185.05.15.033-.033.05.018.05.15l-.1.2c.133.267.216.517.25.75.033.234.115.484.25.75.133-.133.15-.215.05-.25-.1-.033-.084-.05.05-.05.2.4.4.9.601,1.5s.333,1.1.399,1.5c0,.267-.05.467-.149.6-.101.134-.085.267.05.4h-.3c.133.067.232.167.3.3l.2.4c0,.2-.018.317-.05.35-.035.035-.018.117.05.25-.067.067-.101.134-.101.2.066.067.101.167.101.3.065.2.1.384.1.55,0,.167.033.317.101.45.065-.133.1-.15.1-.05s-.067.284-.2.55c0,.067.016.1.05.1.033,0,.051.034.051.1.133.134.199.3.199.5.066.4.033.817-.1,1.25-.135.434-.234.884-.3,1.35v.2c.065.535.115.95.149,1.25.033.3.066.567.101.8.032.234.016.35-.05.35v.1ZM474.671,92.932c-.065.067-.1.084-.1.05,0-.033.034-.216.1-.55v.5ZM481.971,81.932v.2l.101-.1-.101-.1ZM483.071,80.932c-.133,0-.2-.1-.2-.3l.2.3ZM484.271,86.132c.066,0,.117.017.149.05.034.035-.016.018-.149-.05ZM486.671,81.132c-.065.067-.149.117-.25.15-.1.035-.183.117-.25.25.067,0,.101-.033.101-.1,0-.133.034-.266.1-.4.135-.065.284-.1.45-.1.167,0,.117.067-.15.2ZM489.171,111.932c.335,0,.65.016.95.05.3.033.617.05.95.05l-.101.3c-.532-.067-.933-.135-1.199-.2-.266-.067-.533-.134-.801-.2h.2ZM498.871,98.832c.065,0,.1.034.1.1l-.1-.1ZM499.271,98.532c-.067,0-.101-.1-.101-.3l.101.3ZM503.571,42.732c0-.133.05-.233.149-.3.101-.065.116-.2.051-.4h.1-.2c-.067,0-.1-.033-.1-.1,0-.2.032-.35.1-.45.065-.1.101-.216.101-.35v-.1c0,.134-.035.234-.101.3-.067.067-.1.134-.1.2-.335.734-.734,1.334-1.2,1.8,0,.134.016.184.05.15.033-.033.083.017.15.15l.1-.4h.101c.133-.066.25-.15.35-.25s.216-.183.35-.25l-.1-.1c.065,0,.133.034.2.1ZM503.571,94.832c.065,0,.065.167,0,.5v-.5ZM504.771,89.632c0-.133.016-.216.05-.25.032-.033.05-.116.05-.25-.135.134-.3.217-.5.25-.2.034-.367.117-.5.25h.9ZM504.671,91.432c.065,0,.101-.1.101-.3l-.4.2.3.1ZM504.671,112.532v-.1c.065.066.101.133.101.2l-.101-.1ZM505.071,67.332l.1.1-.1-.1ZM505.771,67.732v-.1h-.101v-.2l.101.1c0-.065-.035-.1-.101-.1l-.3.1c.065.067.166.1.3.1.065,0,.101.034.101.1v.1-.1ZM507.171,31.332h-.2c.066.067.101.134.101.2v.1-.2h.1v-.1ZM513.271,45.932c.065-.065.133-.115.199-.15.066-.033.266-.083.601-.15l-.7-.6c-.067.267-.1.567-.1.9ZM514.071,76.432c-.067,0-.101-.016-.101-.05,0-.033-.034-.05-.1-.05l.2.1ZM516.671,35.732h-.2c-.066,0-.1-.033-.1-.1v.1h-.2c.065,0,.101-.033.101-.1h-.101c-.067,0-.067.034,0,.1h-.399c.065.067.165.1.3.1h.1v.1l-.1-.1v.3c0,.067.032.134.1.2l.2-.3.3-.3ZM516.771,34.532c-.268.067-.5.2-.7.4.065.067.1.15.1.25s.033.15.101.15c0,.067.032.1.1.1v.1c0,.067.033.1.1.1h.2l.101-1.1ZM516.371,35.532h-.1v.1h.1l-.1-.1c.065.067.199.1.399.1h-.2c-.066,0-.1-.033-.1-.1v-.1h-.1v.1h.1ZM521.671,46.232c0,.134.05.217.15.25.1.034.149.017.149-.05-.134,0-.217.05-.25.15-.034.1-.084.084-.149-.05v-.1l.1-.2ZM524.071,35.932c.133,0,.2.035.2.1l-.2-.1ZM525.571,20.932c0-.065-.034-.1-.101-.1.066,0,.101.034.101.1ZM539.671,36.632h.2-.2ZM541.871,40.332c-.067-.066-.135-.1-.2-.1v.4c.133-.065.166-.133.101-.2-.067-.065-.067-.1,0-.1.065.134.1.267.1.4v-.4Z"/><path d="M174.622,104.892l.947-1.121c.695.625,1.596,1.042,2.556,1.042,1.065,0,1.629-.469,1.629-1.108,0-.816-.627-1.035-1.521-1.411l-1.259-.547c-.962-.375-1.954-1.086-1.954-2.429,0-1.457,1.312-2.581,3.181-2.581,1.123,0,2.183.437,2.932,1.166l-.832,1.034c-.623-.496-1.256-.782-2.178-.782-.869,0-1.455.391-1.455,1.068,0,.713.731.974,1.562,1.292l1.201.523c1.166.448,1.99,1.144,1.99,2.467,0,1.487-1.253,2.727-3.394,2.727-1.288,0-2.507-.491-3.406-1.338Z"/><path d="M182.802,101.44c0-3.011,1.477-4.705,3.602-4.705s3.602,1.694,3.602,4.705c0,3.068-1.478,4.789-3.602,4.789s-3.602-1.721-3.602-4.789ZM188.33,101.44c0-2.101-.76-3.288-1.926-3.288s-1.925,1.188-1.925,3.288c0,2.158.76,3.372,1.925,3.372s1.926-1.214,1.926-3.372Z"/><path d="M191.6,102.567v-5.664h1.638v5.784c0,1.485.61,2.125,1.584,2.125.983,0,1.613-.64,1.613-2.125v-5.784h1.571v5.664c0,2.5-1.175,3.663-3.185,3.663s-3.223-1.163-3.223-3.663Z"/><path d="M200.037,96.903h1.71l2.422,5.144.831,1.957h.039c-.068-.937-.221-2.096-.221-3.12v-3.981h1.553v9.158h-1.71l-2.422-5.149-.831-1.951h-.038c.067.974.221,2.078.221,3.092v4.008h-1.552v-9.158Z"/><path d="M208.502,96.903h2.397c2.703,0,4.325,1.51,4.325,4.537s-1.622,4.621-4.238,4.621h-2.484v-9.158ZM210.8,104.74c1.748,0,2.748-1.046,2.748-3.3s-1-3.216-2.748-3.216h-.669v6.516h.669Z"/><path d="M225.864,96.903h5.861v1.37h-4.232v2.597h3.597v1.37h-3.597v3.821h-1.629v-9.158Z"/><path d="M233.6,102.567v-5.664h1.638v5.784c0,1.485.61,2.125,1.584,2.125.983,0,1.613-.64,1.613-2.125v-5.784h1.571v5.664c0,2.5-1.175,3.663-3.185,3.663s-3.223-1.163-3.223-3.663Z"/><path d="M244.389,98.273h-2.885v-1.37h7.4v1.37h-2.886v7.788h-1.629v-7.788Z"/><path d="M250.399,102.567v-5.664h1.638v5.784c0,1.485.61,2.125,1.584,2.125.983,0,1.613-.64,1.613-2.125v-5.784h1.571v5.664c0,2.5-1.175,3.663-3.185,3.663s-3.223-1.163-3.223-3.663Z"/><path d="M258.976,96.903h3.062c1.899,0,3.376.672,3.376,2.72,0,1.968-1.477,2.861-3.376,2.861h-1.424v3.577h-1.638v-9.158ZM261.87,101.183c1.254,0,1.936-.526,1.936-1.559,0-1.051-.682-1.418-1.936-1.418h-1.256v2.977h1.256ZM262.91,101.073l2.858,4.988h-1.83l-2.21-4.012,1.182-.976Z"/><path d="M267.643,96.903h5.873v1.37h-4.243v2.342h3.594v1.37h-3.594v2.707h4.383v1.37h-6.013v-9.158Z"/><path d="M275.42,104.892l.947-1.121c.695.625,1.596,1.042,2.556,1.042,1.065,0,1.629-.469,1.629-1.108,0-.816-.627-1.035-1.521-1.411l-1.259-.547c-.962-.375-1.955-1.086-1.955-2.429,0-1.457,1.312-2.581,3.182-2.581,1.123,0,2.183.437,2.932,1.166l-.832,1.034c-.623-.496-1.256-.782-2.178-.782-.869,0-1.455.391-1.455,1.068,0,.713.731.974,1.562,1.292l1.201.523c1.166.448,1.99,1.144,1.99,2.467,0,1.487-1.253,2.727-3.394,2.727-1.288,0-2.507-.491-3.406-1.338Z"/><path d="M292.633,96.903h3.01c2.005,0,3.491.702,3.491,2.822,0,2.05-1.516,2.972-3.491,2.972h-1.381v3.364h-1.629v-9.158ZM295.514,101.395c1.36,0,2.012-.547,2.012-1.67,0-1.132-.682-1.52-2.012-1.52h-1.251v3.189h1.251Z"/><path d="M300.976,96.903h3.062c1.899,0,3.375.672,3.375,2.72,0,1.968-1.477,2.861-3.375,2.861h-1.424v3.577h-1.638v-9.158ZM303.87,101.183c1.253,0,1.935-.526,1.935-1.559,0-1.051-.682-1.418-1.935-1.418h-1.256v2.977h1.256ZM304.909,101.073l2.857,4.988h-1.829l-2.21-4.012,1.182-.976Z"/><path d="M308.8,101.44c0-3.011,1.478-4.705,3.602-4.705s3.603,1.694,3.603,4.705c0,3.068-1.478,4.789-3.603,4.789s-3.602-1.721-3.602-4.789ZM314.327,101.44c0-2.101-.76-3.288-1.926-3.288s-1.925,1.188-1.925,3.288c0,2.158.76,3.372,1.925,3.372s1.926-1.214,1.926-3.372Z"/><path d="M317.7,96.903h2.397c2.703,0,4.325,1.51,4.325,4.537s-1.622,4.621-4.238,4.621h-2.484v-9.158ZM319.998,104.74c1.748,0,2.748-1.046,2.748-3.3s-1-3.216-2.748-3.216h-.669v6.516h.669Z"/><path d="M325.998,102.567v-5.664h1.638v5.784c0,1.485.61,2.125,1.585,2.125.983,0,1.613-.64,1.613-2.125v-5.784h1.571v5.664c0,2.5-1.176,3.663-3.185,3.663s-3.223-1.163-3.223-3.663Z"/><path d="M334.232,101.508c0-2.992,1.82-4.773,4.242-4.773,1.132,0,2.041.542,2.624,1.141l-.909,1.015c-.456-.453-1.001-.739-1.715-.739-1.521,0-2.565,1.255-2.565,3.307,0,2.09,1.045,3.353,2.606,3.353.748,0,1.341-.344,1.848-.906l.909.987c-.729.861-1.697,1.336-2.921,1.336-2.269,0-4.119-1.683-4.119-4.721Z"/><path d="M345.187,98.273h-2.885v-1.37h7.399v1.37h-2.886v7.788h-1.629v-7.788Z"/><path d="M351.381,104.692h2.206v-6.418h-2.206v-1.37h6.041v1.37h-2.206v6.418h2.206v1.37h-6.041v-1.37Z"/><path d="M359.199,101.44c0-3.011,1.478-4.705,3.602-4.705s3.603,1.694,3.603,4.705c0,3.068-1.478,4.789-3.603,4.789s-3.602-1.721-3.602-4.789ZM364.727,101.44c0-2.101-.76-3.288-1.926-3.288s-1.925,1.188-1.925,3.288c0,2.158.76,3.372,1.925,3.372s1.926-1.214,1.926-3.372Z"/><path d="M368.034,96.903h1.71l2.423,5.144.831,1.957h.038c-.067-.937-.221-2.096-.221-3.12v-3.981h1.553v9.158h-1.711l-2.422-5.149-.831-1.951h-.038c.067.974.221,2.078.221,3.092v4.008h-1.553v-9.158Z"/><path d="M384.632,101.508c0-2.992,1.82-4.773,4.241-4.773,1.133,0,2.042.542,2.624,1.141l-.908,1.015c-.456-.453-1.002-.739-1.716-.739-1.52,0-2.565,1.255-2.565,3.307,0,2.09,1.046,3.353,2.606,3.353.748,0,1.341-.344,1.849-.906l.909.987c-.73.861-1.697,1.336-2.921,1.336-2.27,0-4.119-1.683-4.119-4.721Z"/><path d="M393.641,96.903h5.872v1.37h-4.243v2.342h3.595v1.37h-3.595v2.707h4.384v1.37h-6.013v-9.158Z"/><path d="M401.634,96.903h1.71l2.422,5.144.831,1.957h.039c-.068-.937-.222-2.096-.222-3.12v-3.981h1.553v9.158h-1.71l-2.423-5.149-.831-1.951h-.038c.067.974.221,2.078.221,3.092v4.008h-1.552v-9.158Z"/><path d="M412.386,98.273h-2.886v-1.37h7.4v1.37h-2.886v7.788h-1.629v-7.788Z"/><path d="M418.841,96.903h5.872v1.37h-4.243v2.342h3.595v1.37h-3.595v2.707h4.384v1.37h-6.013v-9.158Z"/><path d="M426.974,96.903h3.062c1.899,0,3.376.672,3.376,2.72,0,1.968-1.477,2.861-3.376,2.861h-1.424v3.577h-1.638v-9.158ZM429.867,101.183c1.254,0,1.936-.526,1.936-1.559,0-1.051-.682-1.418-1.936-1.418h-1.256v2.977h1.256ZM430.907,101.073l2.857,4.988h-1.829l-2.21-4.012,1.182-.976Z"/><rect class="cls-2" x="72.5" y="131" width="463" height="175"/><line class="cls-14" x1="72.5" y1="328.499" x2="535.5" y2="328.374"/><rect x="86" y="143" width="436" height="150"/><rect class="cls-10" x="125" y="632" width="95" height="95"/><path d="M58.457,286.593l-1.002-.968c.73-.527,1.102-1.199,1.102-1.857,0-1.112-.53-1.645-1.909-1.645h-4.64v3.7h-1.37v-5.337h6.143c1.75,0,3.192.827,3.192,3.233,0,1.018-.435,2.153-1.517,2.874Z"/><path d="M58.436,277.983v-2.206h-6.418v2.206h-1.37v-6.042h1.37v2.207h6.418v-2.207h1.37v6.042h-1.37Z"/><path d="M55.252,270.089c-3.011,0-4.773-1.777-4.773-4.153,0-1.224.569-2.053,1.141-2.602l1.015.909c-.426.414-.739.894-.739,1.693,0,1.456,1.255,2.463,3.307,2.463,2.09,0,3.353-.879,3.353-2.492,0-.49-.145-.964-.398-1.228h-1.979v1.569h-1.332v-3.047h4.041c.578.589,1.085,1.622,1.085,2.802,0,2.322-1.683,4.086-4.721,4.086Z"/><path d="M58.636,261.544l-1.121-.947c.625-.695,1.042-1.596,1.042-2.556,0-1.065-.469-1.629-1.108-1.629-.816,0-1.035.627-1.411,1.521l-.547,1.259c-.375.962-1.086,1.955-2.429,1.955-1.457,0-2.581-1.312-2.581-3.182,0-1.123.437-2.183,1.166-2.932l1.034.832c-.496.623-.782,1.256-.782,2.178,0,.869.391,1.455,1.068,1.455.713,0,.974-.731,1.292-1.562l.523-1.201c.448-1.166,1.144-1.99,2.467-1.99,1.487,0,2.727,1.253,2.727,3.394,0,1.288-.491,2.507-1.338,3.406Z"/><path d="M50.647,250.723v-1.92l9.158-2.967v1.734l-4.87,1.377c-.966.276-2.005.568-3.019.818v.056c1.013.258,2.052.532,3.019.808l4.87,1.395v1.667l-9.158-2.967ZM56.045,251.928v-4.293h1.287v4.293h-1.287Z"/><path d="M50.639,245.466v-1.738l5.309-.467c.775-.053,1.347-.088,2.211-.115v-.047c-.864-.147-1.441-.282-2.203-.448l-2.976-.752v-1.224l2.976-.719c.751-.17,1.328-.296,2.203-.448v-.056c-.875-.036-1.446-.053-2.203-.106l-5.317-.449v-1.641l9.167,1.237v1.837l-3.256.717c-.571.125-1.144.231-1.699.29v.042c.555.078,1.128.157,1.699.281l3.256.706v1.799l-9.167,1.303Z"/><path d="M50.647,227.103v-5.861h1.37v4.232h2.597v-3.597h1.37v3.597h3.821v1.629h-9.158Z"/><path d="M55.185,219.765c-3.011,0-4.705-1.477-4.705-3.602s1.694-3.602,4.705-3.602c3.068,0,4.789,1.478,4.789,3.602s-1.721,3.602-4.789,3.602ZM55.185,214.237c-2.101,0-3.288.76-3.288,1.926s1.188,1.926,3.288,1.926c2.158,0,3.372-.76,3.372-1.926s-1.214-1.926-3.372-1.926Z"/><path d="M50.647,210.79v-3.062c0-1.899.672-3.376,2.72-3.376,1.968,0,2.861,1.477,2.861,3.376v1.424h3.577v1.638h-9.158ZM54.927,207.896c0-1.254-.526-1.936-1.559-1.936-1.051,0-1.418.682-1.418,1.936v1.256h2.977v-1.256ZM54.817,206.856l4.988-2.858v1.83l-4.012,2.21-.976-1.182Z"/><path d="M50.647,202.123v-5.872h1.37v4.243h2.342v-3.594h1.37v3.594h2.707v-4.383h1.37v6.012h-9.158Z"/><path d="M58.636,194.346l-1.121-.947c.625-.695,1.042-1.596,1.042-2.556,0-1.065-.469-1.629-1.108-1.629-.816,0-1.035.627-1.411,1.521l-.547,1.259c-.375.962-1.086,1.954-2.429,1.954-1.457,0-2.581-1.312-2.581-3.181,0-1.123.437-2.183,1.166-2.932l1.034.832c-.496.623-.782,1.256-.782,2.178,0,.869.391,1.455,1.068,1.455.713,0,.974-.731,1.292-1.562l.523-1.201c.448-1.166,1.144-1.99,2.467-1.99,1.487,0,2.727,1.253,2.727,3.394,0,1.288-.491,2.507-1.338,3.406Z"/><path d="M58.436,185.584v-2.206h-6.418v2.206h-1.37v-6.042h1.37v2.207h6.418v-2.207h1.37v6.042h-1.37Z"/><path d="M55.252,177.69c-3.011,0-4.773-1.777-4.773-4.153,0-1.224.569-2.053,1.141-2.602l1.015.909c-.426.414-.739.894-.739,1.693,0,1.456,1.255,2.463,3.307,2.463,2.09,0,3.353-.879,3.353-2.492,0-.49-.145-.964-.398-1.228h-1.979v1.569h-1.332v-3.047h4.041c.578.589,1.085,1.622,1.085,2.802,0,2.322-1.683,4.086-4.721,4.086Z"/><path d="M50.647,168.968v-1.638h3.674v-3.131h-3.674v-1.638h9.158v1.638h-4.057v3.131h4.057v1.638h-9.158Z"/><path d="M52.018,158.179v2.885h-1.37v-7.4h1.37v2.886h7.788v1.629h-7.788Z"/><rect class="cls-11" x="124.892" y="388" width="95" height="95"/><rect class="cls-8" x="256.892" y="388" width="95" height="95"/><rect class="cls-9" x="387.892" y="388" width="95" height="95"/><rect class="cls-5" x="124.892" y="510" width="95" height="95"/><rect class="cls-7" x="256.892" y="510" width="95" height="95"/><rect class="cls-6" x="387.892" y="510" width="95" height="95"/><rect class="cls-4" x="255.892" y="632" width="95" height="95"/><rect class="cls-3" x="387.892" y="632" width="95" height="95"/><path d="M476.754,382.153l.746-.844c.349.325.883.573,1.431.573,1.103,0,2.071-.774,2.071-3.061,0-1.887-.723-2.666-1.709-2.666-.758,0-1.387.51-1.387,1.443,0,.907.515,1.359,1.377,1.359.529,0,1.15-.26,1.718-.947l.058.969c-.588.612-1.374.978-2.064.978-1.371,0-2.366-.765-2.366-2.358,0-1.525,1.231-2.507,2.64-2.507,1.614,0,3.014,1.162,3.014,3.73,0,2.956-1.574,4.192-3.242,4.192-1.01,0-1.771-.388-2.285-.861Z"/><path d="M343.631,381.458c0-.994.732-1.567,1.538-1.951v-.048c-.636-.418-1.138-.992-1.138-1.792,0-1.237,1.04-2.038,2.482-2.038,1.508,0,2.436.838,2.436,2.065,0,.711-.515,1.331-1.128,1.739v.048c.822.411,1.464.935,1.464,1.995,0,1.17-1.018,2.074-2.821,2.074-1.744,0-2.833-.87-2.833-2.095ZM347.981,381.429c0-.871-.904-1.124-2.112-1.546-.586.347-1.018.799-1.018,1.426,0,.751.673,1.253,1.646,1.253.916,0,1.484-.421,1.484-1.133ZM347.787,377.779c0-.665-.465-1.159-1.307-1.159-.699,0-1.212.383-1.212,1.047,0,.762.744,1.102,1.76,1.435.501-.403.759-.844.759-1.324Z"/><path d="M216.758,376.955h-4.107v-1.181h5.633v.854c-1.978,2.218-2.373,3.795-2.506,6.78h-1.417c.141-2.71.733-4.385,2.397-6.454Z"/><path d="M476.371,502.136c0-2.956,1.565-4.191,3.241-4.191,1.011,0,1.772.388,2.285.868l-.746.844c-.355-.332-.89-.581-1.431-.581-1.11,0-2.071.774-2.071,3.061,0,1.888.716,2.674,1.709,2.674.75,0,1.379-.518,1.379-1.45,0-.907-.507-1.359-1.368-1.359-.537,0-1.158.26-1.726.947l-.059-.969c.597-.605,1.375-.978,2.065-.978,1.371,0,2.373.766,2.373,2.358,0,1.524-1.231,2.507-2.646,2.507-1.615,0-3.006-1.161-3.006-3.73Z"/><path d="M343.11,505.349l.646-.894c.507.438,1.108.818,1.974.818.967,0,1.698-.539,1.698-1.462,0-.905-.664-1.416-1.625-1.416-.569,0-.892.125-1.418.421l-.66-.424.23-3.766h4.501v1.181h-3.296l-.164,1.832c.396-.157.729-.241,1.204-.241,1.433,0,2.622.743,2.622,2.381,0,1.673-1.394,2.626-2.909,2.626-1.346,0-2.193-.494-2.803-1.057Z"/><path d="M215.746,501.414c.008-.455.041-1.063.064-1.519h-.056c-.251.403-.545.806-.806,1.208l-1.596,2.115h4.763v1.081h-6.174v-.946l3.493-4.727h1.609v7.634h-1.297v-4.847Z"/><path d="M476.28,626.368l.662-.885c.504.462,1.189.833,2.023.833.934,0,1.62-.43,1.62-1.145,0-.788-.64-1.299-2.528-1.299v-1.006c1.648,0,2.273-.519,2.273-1.221,0-.631-.534-1.015-1.339-1.015-.658,0-1.234.284-1.746.715l-.713-.853c.688-.578,1.533-.969,2.517-.969,1.554,0,2.676.73,2.676,2.019,0,.853-.612,1.427-1.543,1.757v.048c.989.233,1.799.879,1.799,1.898,0,1.387-1.331,2.201-2.898,2.201-1.311,0-2.226-.477-2.803-1.08Z"/><path d="M343.424,627.039c2.384-2.057,3.825-3.374,3.825-4.557,0-.806-.492-1.312-1.452-1.312-.662,0-1.221.39-1.681.841l-.766-.762c.744-.748,1.504-1.186,2.628-1.186,1.57,0,2.596.931,2.596,2.343,0,1.36-1.378,2.757-3.148,4.336.457-.04.979-.073,1.405-.073h2.149v1.173h-5.557v-.804Z"/><path d="M212.694,626.711h2.127v-4.996h-1.702v-.877c.965-.138,1.523-.321,2.064-.63h1.025v6.503h1.859v1.132h-5.374v-1.132Z"/></g></svg>